<svg width="278" height="213" viewBox="0 0 278 213" fill="none" xmlns="http://www.w3.org/2000/svg">
<path d="M7.875 14.3047H10.6641L12.1055 16.2031C13.0781 15.1953 13.6523 13.625 13.6406 11.5156C13.6523 7.63672 11.707 5.53906 8.92969 5.53906C6.16406 5.53906 4.20703 7.63672 4.21875 11.5156C4.20703 15.3945 6.16406 17.4922 8.92969 17.4922C9.375 17.4922 9.79688 17.4336 10.1953 17.3281L7.875 14.3047ZM1.14844 11.5156C1.13672 6.03125 4.46484 2.79688 8.92969 2.79688C13.3711 2.79688 16.7227 6.03125 16.7109 11.5156C16.7227 14.5977 15.668 16.9648 13.957 18.4531L16.3125 21.4766H13.3359L11.918 19.6836C11.0039 20.0469 9.99609 20.2344 8.92969 20.2344C4.46484 20.2344 1.13672 16.9883 1.14844 11.5156ZM19.4531 20V3.03125H25.8281C29.7188 3.03125 31.793 5.21094 31.8047 8.44531C31.793 10.7539 30.7383 12.4648 28.7461 13.2734L32.4141 20H29.0156L25.6875 13.7891H22.5V20H19.4531ZM22.5 11.2344H25.3594C27.6562 11.2461 28.6875 10.2617 28.6875 8.44531C28.6875 6.64062 27.6562 5.58594 25.3594 5.58594H22.5V11.2344ZM50.7891 2.77344V4.69531C50.7773 7.26172 50.8125 10.2266 49.8516 14.7031L47.2969 14.4453C47.6719 12.7344 47.8945 11.2227 48.0234 9.875L35.5312 10.5781L35.1562 8.35156L48.1758 7.88281C48.2227 6.78125 48.2344 5.79688 48.2344 4.88281H35.8125V2.77344H50.7891ZM33.5625 19.4844V17.3281H40.6875V12.1016H43.2656V17.3281H52.875V19.4844H33.5625ZM71.5078 10.8359V12.9219H56.6484V2.75H71.3438V4.85938H59.2266V10.8359H71.5078ZM54.3047 19.3906V17.2344H73.6641V19.3906H54.3047ZM91.6406 0.898438V9.17188H94.7812V11.3516H91.6406V22.0391H89.0391V0.898438H91.6406ZM74.9297 16.25C80.0859 13.6719 82.875 10.0859 83.3906 5.25781H76.0781V3.10156H86.0391C86.0273 9.32422 83.4492 14.7969 76.4062 18.2656L74.9297 16.25ZM120.82 13.2266V15.2891H112.383V22.0859H109.805V15.2891H101.461V13.2266H120.82ZM103.805 11.0234V1.74219H106.383V4.34375H115.852V1.74219H118.477V11.0234H103.805ZM106.383 8.91406H115.852V6.40625H106.383V8.91406ZM129.844 5.49219C129.832 7.8125 131.555 10.1328 134.906 11.0469L133.688 13.1328C131.262 12.4297 129.527 10.9648 128.566 9.11328C127.641 11.1406 125.883 12.7344 123.398 13.4844L122.133 11.4453C125.473 10.4844 127.242 8.02344 127.242 5.49219V5.32812H122.812V3.26562H127.242V0.828125H129.867V3.26562H134.273V5.32812H129.844V5.49219ZM124.828 16.9062V14.8203H138.938V22.1094H136.336V16.9062H124.828ZM136.336 13.8594V0.898438H138.938V6.26562H141.891V8.46875H138.938V13.8594H136.336ZM155.578 9.6875V11.7969H151.289V15.4883C153.141 15.418 154.992 15.2891 156.75 15.1016L156.961 17.0234C152.297 17.7148 147.387 17.7617 143.391 17.7734L143.062 15.6172C144.809 15.6289 146.719 15.6172 148.688 15.582V11.7969H144.539V2.84375H155.484V4.90625H147.117V9.6875H155.578ZM158.016 22.1094V0.898438H160.617V22.1094H158.016ZM169.5 2.44531C172.359 2.44531 174.48 4.83594 174.855 8.70312H178.898V0.898438H181.477V22.1094H178.898V10.8125H174.879C174.598 14.9023 172.441 17.4219 169.5 17.4219C166.312 17.4219 164.051 14.5273 164.062 9.92188C164.051 5.35156 166.312 2.44531 169.5 2.44531ZM166.57 9.92188C166.559 13.1797 167.754 15.0664 169.5 15.0781C171.258 15.0664 172.441 13.1797 172.453 9.92188C172.441 6.6875 171.258 4.78906 169.5 4.78906C167.754 4.78906 166.559 6.6875 166.57 9.92188ZM197.672 14.6797C197.672 16.4492 198.48 18.2891 200.297 19.4609C202.148 18.207 203.004 16.2852 203.016 14.6797V13.8125H205.57V14.6797C205.559 16.8945 206.871 18.9805 209.648 19.8594L208.383 21.7578C206.32 21.0664 204.961 19.7188 204.223 18.0195C203.531 19.6953 202.289 21.1719 200.367 21.9453C198.352 21.207 197.086 19.7773 196.418 18.1016C195.656 19.7305 194.309 21.0547 192.352 21.7578L191.062 19.8594C193.805 18.8984 195.129 16.7422 195.141 14.6797V13.8125H197.672V14.6797ZM190.523 7.08594C190.523 4.10938 192.961 2.04688 196.242 2.04688C199.512 2.04688 201.949 4.10938 201.938 7.08594C201.949 10.0273 199.512 12.1133 196.242 12.1016C192.961 12.1133 190.523 10.0273 190.523 7.08594ZM193.078 7.08594C193.066 8.82031 194.391 9.93359 196.242 9.94531C198.059 9.93359 199.383 8.82031 199.383 7.08594C199.383 5.35156 198.059 4.23828 196.242 4.25C194.391 4.23828 193.066 5.35156 193.078 7.08594ZM205.172 12.9219V0.921875H207.797V12.9219H205.172ZM218.883 6.92188C218.883 10.3906 220.922 14.0469 224.344 15.4766L222.914 17.5391C220.406 16.4492 218.578 14.2344 217.605 11.5391C216.633 14.4453 214.77 16.8828 212.297 18.0547L210.797 16.0156C214.137 14.4688 216.223 10.5195 216.234 6.92188V5.14062H211.57V2.98438H223.523V5.14062H218.883V6.92188ZM225.891 22.0859V0.898438H228.516V22.0859H225.891ZM243.188 2C246.422 1.98828 248.801 4.03906 248.812 6.89844C248.801 9.80469 246.422 11.832 243.188 11.8438C239.977 11.832 237.551 9.80469 237.562 6.89844C237.551 4.03906 239.977 1.98828 243.188 2ZM239.344 21.5V13.5312H241.898V19.3789C243.105 19.3086 244.359 19.1328 245.578 18.7344L245.953 20.7734C244.078 21.4297 242.273 21.5117 240.469 21.5H239.344ZM240.117 6.89844C240.094 8.58594 241.43 9.71094 243.188 9.71094C244.945 9.71094 246.27 8.58594 246.281 6.89844C246.27 5.24609 244.945 4.14453 243.188 4.13281C241.43 4.14453 240.094 5.24609 240.117 6.89844ZM245.227 15.5234V13.5781H249.305V11.9609H251.859V13.5781H255.891V15.5234H245.227ZM246.516 19.0859C246.492 17.2461 248.145 16.0859 250.547 16.0859C252.926 16.0859 254.59 17.2461 254.602 19.0859C254.59 20.9141 252.926 22.0625 250.547 22.0625C248.133 22.0625 246.492 20.9141 246.516 19.0859ZM248.836 19.0859C248.824 19.8359 249.551 20.2578 250.547 20.2578C251.543 20.2578 252.258 19.8359 252.258 19.0859C252.258 18.3477 251.543 17.9141 250.547 17.8906C249.551 17.9141 248.824 18.3477 248.836 19.0859ZM251.438 11.3984V0.898438H254.039V5.42188H256.992V7.57812H254.039V11.3984H251.438ZM277.383 11.8438V13.9297H258.07V11.8438H277.383ZM260.062 5.86719C260.062 3.18359 263.074 1.56641 267.703 1.57812C272.32 1.56641 275.332 3.18359 275.344 5.86719C275.332 8.5625 272.32 10.2031 267.703 10.2031C263.074 10.2031 260.062 8.5625 260.062 5.86719ZM260.461 21.6641V15.5H263.062V19.5547H275.203V21.6641H260.461ZM262.781 5.86719C262.758 7.30859 264.621 8.08203 267.703 8.07031C270.797 8.08203 272.648 7.30859 272.648 5.86719C272.648 4.47266 270.797 3.66406 267.703 3.66406C264.621 3.66406 262.758 4.47266 262.781 5.86719ZM20.0391 49.8672V51.9531H11.8594V55.6094H9.28125V51.9531H0.679688V49.8672H20.0391ZM3.02344 59.6641V53.8281H5.60156V57.5547H17.9062V59.6641H3.02344ZM3.21094 48.2031V39.5781H5.78906V41.9688H14.9297V39.5781H17.5078V48.2031H3.21094ZM5.78906 46.1406H14.9297V43.9141H5.78906V46.1406ZM39.0469 38.8984V49.7031H36.4688V38.8984H39.0469ZM21.4219 47.6406C24.8555 46.5508 26.6602 43.832 26.6484 41.0547V39.4141H29.3438V41.0547C29.332 43.75 31.125 46.2695 34.4766 47.2891L33.2109 49.3047C30.75 48.543 28.9922 46.9727 28.0312 44.957C27.0703 47.1484 25.2656 48.8711 22.7344 49.6797L21.4219 47.6406ZM25.0312 52.7031V50.6875H39.0938V56.1953H27.6328V57.8359H39.7266V59.8984H25.0781V54.25H36.4922V52.7031H25.0312ZM61.5 47.5V49.5625H53.1094V51.1562H59.0859V56.3594H47.0391V57.9062H59.6719V59.8984H44.4844V54.4844H56.5312V53.125H44.4609V51.1562H50.5078V49.5625H42.1875V47.5H61.5ZM44.625 46.1641V39.5547H59.0156V46.1641H44.625ZM47.1797 44.125H56.4141V41.5938H47.1797V44.125ZM80.1328 48.5312V50.5938H73.8516V55.4453H82.2891V57.5781H62.9297V55.4453H71.2734V50.5938H65.2734V40.4688H79.9688V42.5547H67.875V48.5312H80.1328ZM107.648 38.8984V60.0859H105.164V38.8984H107.648ZM89.2031 53.7578C93.5859 51.168 95.6016 47.8516 96 43.5859H90.2812V41.4766H98.5781C98.5781 43.5273 98.3203 45.4492 97.7461 47.2422H100.688V39.4141H103.148V59.0781H100.688V49.3281H96.8906C95.6602 51.7539 93.668 53.875 90.6797 55.6094L89.2031 53.7578ZM118.125 43.9844C118.102 47.875 120.152 51.7656 123.586 53.2422L122.039 55.3281C119.602 54.2031 117.82 51.9648 116.836 49.1992C115.863 52.1758 114.035 54.6133 111.469 55.8203L109.875 53.6406C113.402 52.1172 115.465 48.0742 115.477 43.9844V40.6094H118.125V43.9844ZM125.109 60.1094V38.8984H127.734V60.1094H125.109ZM142.781 40.75V42.8359H140.93V49.1055C141.855 49.0234 142.758 48.9414 143.625 48.8359L143.812 50.7578C139.547 51.4727 134.672 51.5547 131.086 51.5547L130.805 49.4453C131.566 49.4453 132.387 49.4336 133.242 49.4219V42.8359H131.367V40.75H142.781ZM133.992 59.6641V53.0312H136.594V57.5547H148.406V59.6641H133.992ZM135.75 49.3633C136.617 49.3398 137.508 49.3047 138.398 49.2578V42.8359H135.75V49.3633ZM144.961 54.5078V38.9219H147.562V45.0391H150.516V47.2188H147.562V54.5078H144.961ZM161.227 39.2266C166.055 39.2383 168.855 40.5156 168.867 42.8594C168.855 45.2266 166.055 46.5039 161.227 46.5156C156.41 46.5039 153.586 45.2266 153.586 42.8594C153.586 40.5156 156.41 39.2383 161.227 39.2266ZM151.594 49.7266V47.6406H170.906V49.7266H151.594ZM153.867 53.0781V51.1562H168.492V56.3359H156.445V57.9062H169.078V59.8984H153.891V54.4844H165.938V53.0781H153.867ZM156.328 42.8594C156.316 44.0312 158.004 44.5703 161.227 44.5703C164.496 44.5703 166.172 44.0312 166.172 42.8594C166.172 41.7695 164.496 41.1484 161.227 41.1484C158.004 41.1484 156.316 41.7695 156.328 42.8594ZM197.344 49.9141V51.9766H177.984V49.9141H186.352V48.3438H180.469V39.4609H195.023V41.4766H183.07V42.9297H194.508V44.8516H183.07V46.3516H195.188V48.3438H188.953V49.9141H197.344ZM180.281 56.5938C180.281 54.3789 182.941 53.1367 187.664 53.1484C192.316 53.1367 194.988 54.3789 195 56.5938C194.988 58.8672 192.316 60.0625 187.664 60.0625C182.941 60.0625 180.281 58.8672 180.281 56.5938ZM182.883 56.5938C182.883 57.625 184.477 58.1172 187.664 58.1172C190.793 58.1172 192.375 57.625 192.398 56.5938C192.375 55.5859 190.793 55.0938 187.664 55.0938C184.477 55.0938 182.883 55.5859 182.883 56.5938ZM209.109 42.2734V44.3594H198.727V42.2734H202.664V39.5078H205.242V42.2734H209.109ZM199.336 50.4062C199.312 47.5234 201.27 45.4727 203.953 45.4844C206.648 45.4727 208.57 47.5234 208.57 50.4062C208.57 53.3477 206.648 55.3984 203.953 55.3984C201.27 55.3984 199.312 53.3477 199.336 50.4062ZM201.633 50.4062C201.621 52.1172 202.582 53.1836 203.953 53.1719C205.312 53.1836 206.273 52.1172 206.273 50.4062C206.273 48.7422 205.312 47.6406 203.953 47.6406C202.582 47.6406 201.621 48.7422 201.633 50.4062ZM210 59.125V39.3438H212.438V47.6172H214.5V38.8984H216.984V60.0859H214.5V49.7266H212.438V59.125H210ZM227.344 43.9844C227.332 47.9219 229.219 51.7891 232.594 53.2656L231.023 55.3516C228.633 54.1797 226.945 51.9297 226.043 49.1523C225.117 52.082 223.383 54.5195 220.945 55.75L219.305 53.6406C222.762 52.0234 224.684 47.9453 224.695 43.9844V40.6094H227.344V43.9844ZM230.25 47.8516V45.7422H234.703V38.8984H237.281V60.1094H234.703V47.8516H230.25ZM8.32031 81.2344C8.30859 83.5078 10.0312 85.7344 13.3594 86.625L12.1875 88.6172C9.73828 87.9609 7.99219 86.5547 7.04297 84.75C6.10547 86.7422 4.32422 88.2891 1.82812 89.0156L0.585938 86.9531C3.92578 86.0508 5.71875 83.7188 5.71875 81.2344V81.1641H1.28906V79.1016H5.71875V76.8047H8.34375V79.1016H12.75V81.1641H8.32031V81.2344ZM2.67188 96C6.30469 95.5078 8.66016 93.9141 9.16406 92.1094H3.53906V90.0234H17.7188V92.1094H12.1172C12.6211 93.8672 14.9883 95.5195 18.6094 96.0234L17.6719 98.0156C14.3555 97.5469 11.8477 96.1289 10.6289 94.207C9.41016 96.1172 6.91406 97.5 3.63281 97.9688L2.67188 96ZM14.8125 89.0391V76.8984H17.4141V81.8203H20.3672V83.9766H17.4141V89.0391H14.8125ZM31.0781 77.2266C35.9062 77.2383 38.707 78.5156 38.7188 80.8594C38.707 83.2266 35.9062 84.5039 31.0781 84.5156C26.2617 84.5039 23.4375 83.2266 23.4375 80.8594C23.4375 78.5156 26.2617 77.2383 31.0781 77.2266ZM21.4453 87.7266V85.6406H40.7578V87.7266H21.4453ZM23.7188 91.0781V89.1562H38.3438V94.3359H26.2969V95.9062H38.9297V97.8984H23.7422V92.4844H35.7891V91.0781H23.7188ZM26.1797 80.8594C26.168 82.0312 27.8555 82.5703 31.0781 82.5703C34.3477 82.5703 36.0234 82.0312 36.0234 80.8594C36.0234 79.7695 34.3477 79.1484 31.0781 79.1484C27.8555 79.1484 26.168 79.7695 26.1797 80.8594ZM58.9219 78.6562C58.9102 81.3164 61.8984 84.0234 66.4219 84.6094L65.3906 86.7188C61.793 86.1797 58.9336 84.4102 57.5508 82.0195C56.168 84.4102 53.3203 86.1797 49.7578 86.7188L48.7266 84.6094C53.2031 84.0234 56.1797 81.3398 56.1797 78.6562V77.5781H58.9219V78.6562ZM47.8828 90.7031V88.5469H67.1953V90.7031H58.7812V98.0859H56.2031V90.7031H47.8828ZM81.8438 90.6797C81.8438 92.4492 82.6523 94.2891 84.4688 95.4609C86.3203 94.207 87.1758 92.2852 87.1875 90.6797V89.8125H89.7422V90.6797C89.7305 92.8945 91.043 94.9805 93.8203 95.8594L92.5547 97.7578C90.4922 97.0664 89.1328 95.7188 88.3945 94.0195C87.7031 95.6953 86.4609 97.1719 84.5391 97.9453C82.5234 97.207 81.2578 95.7773 80.5898 94.1016C79.8281 95.7305 78.4805 97.0547 76.5234 97.7578L75.2344 95.8594C77.9766 94.8984 79.3008 92.7422 79.3125 90.6797V89.8125H81.8438V90.6797ZM74.6953 83.0859C74.6953 80.1094 77.1328 78.0469 80.4141 78.0469C83.6836 78.0469 86.1211 80.1094 86.1094 83.0859C86.1211 86.0273 83.6836 88.1133 80.4141 88.1016C77.1328 88.1133 74.6953 86.0273 74.6953 83.0859ZM77.25 83.0859C77.2383 84.8203 78.5625 85.9336 80.4141 85.9453C82.2305 85.9336 83.5547 84.8203 83.5547 83.0859C83.5547 81.3516 82.2305 80.2383 80.4141 80.25C78.5625 80.2383 77.2383 81.3516 77.25 83.0859ZM89.3438 88.9219V76.9219H91.9688V88.9219H89.3438ZM100.852 78.4453C103.711 78.4453 105.832 80.8359 106.207 84.7031H110.25V76.8984H112.828V98.1094H110.25V86.8125H106.23C105.949 90.9023 103.793 93.4219 100.852 93.4219C97.6641 93.4219 95.4023 90.5273 95.4141 85.9219C95.4023 81.3516 97.6641 78.4453 100.852 78.4453ZM97.9219 85.9219C97.9102 89.1797 99.1055 91.0664 100.852 91.0781C102.609 91.0664 103.793 89.1797 103.805 85.9219C103.793 82.6875 102.609 80.7891 100.852 80.7891C99.1055 80.7891 97.9102 82.6875 97.9219 85.9219ZM135.164 93.375V95.5078H115.805V93.375H120.281V88.0195C118.594 87.0469 117.574 85.5234 117.586 83.6484C117.574 80.2734 120.879 78.0469 125.438 78.0469C130.02 78.0469 133.348 80.2734 133.336 83.6484C133.348 85.5 132.352 86.9883 130.711 87.9609V93.375H135.164ZM120.141 83.6484C120.129 85.8164 122.273 87.1992 125.438 87.1875C128.59 87.1992 130.781 85.8164 130.781 83.6484C130.781 81.4453 128.59 80.0977 125.438 80.1094C122.273 80.0977 120.129 81.4453 120.141 83.6484ZM122.859 93.375H128.062V88.957C127.254 89.1328 126.375 89.2266 125.438 89.2266C124.523 89.2266 123.656 89.1328 122.859 88.9688V93.375ZM139.125 96.1875C138.117 96.1875 137.285 95.3672 137.297 94.3594C137.285 93.375 138.117 92.5664 139.125 92.5547C140.098 92.5664 140.93 93.375 140.93 94.3594C140.93 95.3672 140.098 96.1875 139.125 96.1875ZM167.578 87.8672V89.9531H159.398V93.6094H156.82V89.9531H148.219V87.8672H167.578ZM150.562 97.6641V91.8281H153.141V95.5547H165.445V97.6641H150.562ZM150.75 86.2031V77.5781H153.328V79.9688H162.469V77.5781H165.047V86.2031H150.75ZM153.328 84.1406H162.469V81.9141H153.328V84.1406ZM186.586 76.8984V87.7031H184.008V76.8984H186.586ZM168.961 85.6406C172.395 84.5508 174.199 81.832 174.188 79.0547V77.4141H176.883V79.0547C176.871 81.75 178.664 84.2695 182.016 85.2891L180.75 87.3047C178.289 86.543 176.531 84.9727 175.57 82.957C174.609 85.1484 172.805 86.8711 170.273 87.6797L168.961 85.6406ZM172.57 90.7031V88.6875H186.633V94.1953H175.172V95.8359H187.266V97.8984H172.617V92.25H184.031V90.7031H172.57ZM209.039 85.5V87.5625H200.648V89.1562H206.625V94.3594H194.578V95.9062H207.211V97.8984H192.023V92.4844H204.07V91.125H192V89.1562H198.047V87.5625H189.727V85.5H209.039ZM192.164 84.1641V77.5547H206.555V84.1641H192.164ZM194.719 82.125H203.953V79.5938H194.719V82.125ZM217.336 78.375C220.699 78.3633 223.148 80.4844 223.172 83.4844C223.148 86.4961 220.699 88.6055 217.336 88.6172C214.008 88.6055 211.512 86.4961 211.523 83.4844C211.512 80.4844 214.008 78.3633 217.336 78.375ZM210.562 91.5469C214.383 91.5469 219.668 91.5 224.25 90.8438L224.461 92.7422C219.715 93.6445 214.629 93.6797 210.891 93.6797L210.562 91.5469ZM214.102 83.4844C214.09 85.2539 215.484 86.3438 217.336 86.3438C219.211 86.3438 220.605 85.2539 220.617 83.4844C220.605 81.7266 219.223 80.625 217.336 80.625C215.484 80.625 214.09 81.7266 214.102 83.4844ZM225.516 98.1094V76.8984H228.117V98.1094H225.516ZM20.0391 126.781V128.891H15.3281V136.086H12.6797V128.891H7.99219V136.086H5.32031V128.891H0.679688V126.781H20.0391ZM2.71875 120.383C2.70703 117.5 5.80078 115.66 10.3125 115.648C14.8242 115.66 17.9414 117.5 17.9531 120.383C17.9414 123.23 14.8242 125.023 10.3125 125.023C5.80078 125.023 2.70703 123.23 2.71875 120.383ZM5.39062 120.383C5.37891 122 7.32422 122.949 10.3125 122.961C13.3125 122.949 15.2578 122 15.2578 120.383C15.2578 118.719 13.3125 117.758 10.3125 117.758C7.32422 117.758 5.37891 118.719 5.39062 120.383ZM33.3281 117.008V119.07H21.4922V117.008H26.2266V114.711H28.8281V117.008H33.3281ZM22.5938 123.875C22.582 121.508 24.5977 119.914 27.4922 119.914C30.375 119.914 32.4492 121.508 32.4609 123.875C32.4492 126.23 30.375 127.789 27.4922 127.789C24.5977 127.789 22.582 126.23 22.5938 123.875ZM24.8203 132.383C24.8203 130.051 27.5742 128.691 32.0625 128.703C36.5391 128.691 39.293 130.051 39.3047 132.383C39.293 134.68 36.5391 136.062 32.0625 136.062C27.5742 136.062 24.8203 134.68 24.8203 132.383ZM25.0312 123.875C25.0195 125.117 25.9922 125.844 27.4922 125.844C28.9922 125.844 30.0234 125.117 30.0234 123.875C30.0234 122.609 28.9922 121.859 27.4922 121.859C25.9922 121.859 25.0195 122.609 25.0312 123.875ZM27.5625 132.383C27.5508 133.484 29.2031 134.082 32.0625 134.07C34.8984 134.082 36.5156 133.484 36.5156 132.383C36.5156 131.258 34.8984 130.695 32.0625 130.695C29.2031 130.695 27.5508 131.258 27.5625 132.383ZM33.4453 125.984V123.898H36.5859V121.812H33.4688V119.703H36.5859V114.898H39.1875V128.469H36.5859V125.984H33.4453ZM46.3125 132.336L44.3438 138.898H42.1172L43.3359 132.336H46.3125ZM73.3359 125.867V127.953H65.1562V131.609H62.5781V127.953H53.9766V125.867H73.3359ZM56.3203 135.664V129.828H58.8984V133.555H71.2031V135.664H56.3203ZM56.5078 124.203V115.578H59.0859V117.969H68.2266V115.578H70.8047V124.203H56.5078ZM59.0859 122.141H68.2266V119.914H59.0859V122.141ZM92.3438 114.898V125.703H89.7656V114.898H92.3438ZM74.7188 123.641C78.1523 122.551 79.957 119.832 79.9453 117.055V115.414H82.6406V117.055C82.6289 119.75 84.4219 122.27 87.7734 123.289L86.5078 125.305C84.0469 124.543 82.2891 122.973 81.3281 120.957C80.3672 123.148 78.5625 124.871 76.0312 125.68L74.7188 123.641ZM78.3281 128.703V126.688H92.3906V132.195H80.9297V133.836H93.0234V135.898H78.375V130.25H89.7891V128.703H78.3281ZM109.172 120.922C109.172 124.391 111.211 128.047 114.633 129.477L113.203 131.539C110.695 130.449 108.867 128.234 107.895 125.539C106.922 128.445 105.059 130.883 102.586 132.055L101.086 130.016C104.426 128.469 106.512 124.52 106.523 120.922V119.141H101.859V116.984H113.812V119.141H109.172V120.922ZM116.18 136.086V114.898H118.805V136.086H116.18ZM139.664 128.422V136.086H137.062V130.484H125.227V128.422H139.664ZM122.203 121.203C122.203 118.203 124.605 116.047 127.805 116.07C129.551 116.059 131.074 116.715 132.07 117.828H137.062V114.898H139.664V127.414H137.062V124.602H132.094C131.086 125.727 129.562 126.406 127.805 126.406C124.605 126.406 122.203 124.25 122.203 121.203ZM124.688 121.203C124.688 123.043 125.988 124.191 127.805 124.203C129.539 124.191 130.863 123.043 130.875 121.203C130.863 119.434 129.539 118.262 127.805 118.273C125.988 118.262 124.688 119.434 124.688 121.203ZM133.195 122.492H137.062V119.961H133.207C133.301 120.359 133.359 120.77 133.359 121.203C133.359 121.648 133.301 122.082 133.195 122.492ZM146.789 132.336L144.82 138.898H142.594L143.812 132.336H146.789ZM171.188 114.898V119.023H174.141V121.18H171.188V125.445H168.586V114.898H171.188ZM155.391 124.695V115.836H158.016V122.539C160.711 122.504 163.57 122.27 166.664 121.672L166.969 123.805C163.441 124.52 160.219 124.707 157.148 124.695H155.391ZM157.336 128.422V126.359H171.188V131.984H159.961V133.719H171.844V135.828H157.359V129.992H168.562V128.422H157.336ZM192.445 114.898V123.031H195.023V125.211H192.445V136.086H189.844V114.898H192.445ZM174.773 129.711C177.422 127.742 177.938 123.887 177.938 120.57V118.953H175.57V116.844H181.758V118.953H180.398V120.57C180.41 123.008 180.656 126.078 182.18 128.316C183.656 126.113 183.926 123.055 183.938 120.57V118.953H182.578V116.844H188.484V118.953H186.422V120.57C186.41 123.945 186.926 127.754 189.586 129.711L187.922 131.586C186.492 130.473 185.637 128.762 185.133 126.781C184.617 128.809 183.703 130.637 182.156 131.773C180.633 130.637 179.73 128.82 179.215 126.805C178.711 128.773 177.855 130.484 176.438 131.586L174.773 129.711ZM215.297 124.508V126.477H195.938V124.508H215.297ZM198.188 129.57V127.742H212.953V132.57H200.812V134.047H213.586V135.852H198.211V130.883H210.375V129.57H198.188ZM198.328 117.172V115.367H212.906V120.148H200.977V121.531H213.281V123.312H198.398V118.461H210.305V117.172H198.328ZM240.141 114.898V125.75H237.539V120.383H233.32V118.297H237.539V114.898H240.141ZM222.281 123.781C225.691 122.75 227.461 120.137 227.461 117.289V115.602H230.086V117.289C230.074 119.902 231.785 122.375 235.078 123.383L233.695 125.398C231.398 124.637 229.734 123.137 228.797 121.215C227.883 123.359 226.137 125.047 223.641 125.867L222.281 123.781ZM226.195 128.703V126.664H240.141V132.148H228.773V133.766H240.82V135.828H226.219V130.203H237.562V128.703H226.195ZM260.883 114.898V127.484H258.281V122.305H254.672V120.172H258.281V114.898H260.883ZM243.07 125.375C246.48 124.203 248.273 121.355 248.273 118.555V118.391H243.867V116.281H255.305V118.391H250.922V118.531C250.922 121.109 252.633 123.711 255.914 124.812L254.602 126.875C252.246 126.078 250.582 124.461 249.645 122.469C248.719 124.719 246.949 126.547 244.43 127.438L243.07 125.375ZM246.516 132.055C246.492 129.512 249.246 128.023 253.711 128.023C258.199 128.023 260.941 129.512 260.953 132.055C260.941 134.598 258.199 136.074 253.711 136.086C249.246 136.074 246.492 134.598 246.516 132.055ZM249.094 132.055C249.082 133.367 250.77 134.082 253.711 134.07C256.676 134.082 258.352 133.367 258.352 132.055C258.352 130.73 256.676 130.016 253.711 130.016C250.77 130.016 249.082 130.73 249.094 132.055ZM11.0391 156.273V158.359H0.65625V156.273H4.59375V153.508H7.17188V156.273H11.0391ZM1.26562 164.406C1.24219 161.523 3.19922 159.473 5.88281 159.484C8.57812 159.473 10.5 161.523 10.5 164.406C10.5 167.348 8.57812 169.398 5.88281 169.398C3.19922 169.398 1.24219 167.348 1.26562 164.406ZM3.5625 164.406C3.55078 166.117 4.51172 167.184 5.88281 167.172C7.24219 167.184 8.20312 166.117 8.20312 164.406C8.20312 162.742 7.24219 161.641 5.88281 161.641C4.51172 161.641 3.55078 162.742 3.5625 164.406ZM11.9297 173.125V153.344H14.3672V161.617H16.4297V152.898H18.9141V174.086H16.4297V163.727H14.3672V173.125H11.9297ZM34.7578 157.234C34.7461 159.508 36.4688 161.734 39.7969 162.625L38.625 164.617C36.1758 163.961 34.4297 162.555 33.4805 160.75C32.543 162.742 30.7617 164.289 28.2656 165.016L27.0234 162.953C30.3633 162.051 32.1562 159.719 32.1562 157.234V157.164H27.7266V155.102H32.1562V152.805H34.7812V155.102H39.1875V157.164H34.7578V157.234ZM29.1094 172C32.7422 171.508 35.0977 169.914 35.6016 168.109H29.9766V166.023H44.1562V168.109H38.5547C39.0586 169.867 41.4258 171.52 45.0469 172.023L44.1094 174.016C40.793 173.547 38.2852 172.129 37.0664 170.207C35.8477 172.117 33.3516 173.5 30.0703 173.969L29.1094 172ZM41.25 165.039V152.898H43.8516V157.82H46.8047V159.977H43.8516V165.039H41.25ZM65.1797 154.844V156.883C65.1562 159.52 65.1562 162.461 64.3359 166.891L61.7109 166.609C62.543 162.484 62.543 159.473 62.5547 156.93H49.8984V154.844H65.1797ZM47.8828 171.344V169.211H55.0078V161.852H57.5859V169.211H67.1953V171.344H47.8828ZM76.2188 158.922C76.207 162.191 78.1758 165.918 81.5156 167.477L80.0625 169.539C77.6719 168.414 75.9023 166.141 74.9531 163.492C73.9922 166.398 72.1406 168.883 69.7031 170.055L68.1797 168.016C71.5547 166.41 73.6055 162.449 73.6172 158.922V157.141H69V154.984H80.6484V157.141H76.2188V158.922ZM82.6172 174.086V152.898H85.2188V161.148H88.4766V163.328H85.2188V174.086H82.6172ZM111.656 152.898V161.336H114.914V163.492H111.656V174.086H109.078V152.898H111.656ZM94.9453 158.242V156.156H99.9609V153.203H102.562V156.156H107.438V158.242H94.9453ZM95.9297 164.617C95.9062 161.688 98.1797 159.613 101.273 159.625C104.32 159.613 106.582 161.688 106.594 164.617C106.582 167.535 104.32 169.586 101.273 169.586C98.1797 169.586 95.9062 167.535 95.9297 164.617ZM98.4141 164.617C98.4023 166.34 99.6094 167.441 101.273 167.43C102.902 167.441 104.086 166.34 104.109 164.617C104.086 162.895 102.902 161.758 101.273 161.758C99.6094 161.758 98.4023 162.895 98.4141 164.617ZM132.961 158.898V160.961H118.289V153.672H120.867V158.898H132.961ZM115.781 165.484V163.422H135.141V165.484H115.781ZM118.102 173.594V167.359H120.703V171.484H133.102V173.594H118.102ZM161.578 163.867V165.953H153.398V169.609H150.82V165.953H142.219V163.867H161.578ZM144.562 173.664V167.828H147.141V171.555H159.445V173.664H144.562ZM144.75 162.203V153.578H147.328V155.969H156.469V153.578H159.047V162.203H144.75ZM147.328 160.141H156.469V157.914H147.328V160.141ZM180.586 152.898V163.703H178.008V152.898H180.586ZM162.961 161.641C166.395 160.551 168.199 157.832 168.188 155.055V153.414H170.883V155.055C170.871 157.75 172.664 160.27 176.016 161.289L174.75 163.305C172.289 162.543 170.531 160.973 169.57 158.957C168.609 161.148 166.805 162.871 164.273 163.68L162.961 161.641ZM166.57 166.703V164.688H180.633V170.195H169.172V171.836H181.266V173.898H166.617V168.25H178.031V166.703H166.57ZM203.039 161.5V163.562H194.648V165.156H200.625V170.359H188.578V171.906H201.211V173.898H186.023V168.484H198.07V167.125H186V165.156H192.047V163.562H183.727V161.5H203.039ZM186.164 160.164V153.555H200.555V160.164H186.164ZM188.719 158.125H197.953V155.594H188.719V158.125ZM214.102 153.227C218.93 153.238 221.73 154.516 221.742 156.859C221.73 159.227 218.93 160.504 214.102 160.516C209.285 160.504 206.461 159.227 206.461 156.859C206.461 154.516 209.285 153.238 214.102 153.227ZM204.469 163.727V161.641H223.781V163.727H204.469ZM206.742 167.078V165.156H221.367V170.336H209.32V171.906H221.953V173.898H206.766V168.484H218.812V167.078H206.742ZM209.203 156.859C209.191 158.031 210.879 158.57 214.102 158.57C217.371 158.57 219.047 158.031 219.047 156.859C219.047 155.77 217.371 155.148 214.102 155.148C210.879 155.148 209.191 155.77 209.203 156.859ZM236.742 166.023V167.969H245.953V166.023H248.531V173.828H234.164V166.023H236.742ZM230.93 161.945C234.902 161.945 240.105 161.945 244.664 161.359L244.828 163.211C243.105 163.504 241.324 163.691 239.578 163.82V166.539H236.977V163.961C234.926 164.031 232.98 164.031 231.258 164.031L230.93 161.945ZM231.75 158.945C235.008 158.254 236.742 156.402 236.742 154.352V153.438H239.414V154.352C239.426 156.285 241.172 158.008 244.383 158.641L243.258 160.609C240.809 160.094 239.051 158.922 238.113 157.316C237.199 159.051 235.418 160.375 232.898 160.938L231.75 158.945ZM236.742 171.742H245.953V169.961H236.742V171.742ZM245.93 165.109V152.922H248.531V165.109H245.93ZM269.93 152.898V174.086H267.445V152.898H269.93ZM251.484 167.758C255.867 165.168 257.883 161.852 258.281 157.586H252.562V155.477H260.859C260.859 157.527 260.602 159.449 260.027 161.242H262.969V153.414H265.43V173.078H262.969V163.328H259.172C257.941 165.754 255.949 167.875 252.961 169.609L251.484 167.758ZM11.6719 192.188C11.6602 197.648 8.0625 201.48 1.89844 203.203L0.84375 201.164C5.58984 199.875 8.40234 197.391 8.88281 194.297H1.99219V192.188H11.6719ZM4.5 211.805V203.695H18.4453V211.805H4.5ZM7.05469 209.742H15.8672V205.758H7.05469V209.742ZM11.7656 198.234V196.102H15.8438V190.922H18.4453V202.852H15.8438V198.234H11.7656ZM28.0547 194.742C28.0664 197.109 29.3789 199.453 32.1562 200.555L30.75 202.547C28.8867 201.797 27.5742 200.414 26.8242 198.727C26.0391 200.625 24.6562 202.242 22.6406 203.109L21.2578 201.094C24.1758 199.816 25.5352 197.133 25.5469 194.742V192.164H28.0547V194.742ZM25.0547 206.836V204.75H39.5625V212.086H36.9609V206.836H25.0547ZM32.5312 203.625V191.273H34.9688V196.195H37.0781V190.922H39.5625V203.742H37.0781V198.352H34.9688V203.625H32.5312ZM58.8984 190.852V195.633H61.875V197.742H58.8984V202.406H56.2969V190.852H58.8984ZM42.2109 194.602V192.609H47.2031V190.734H49.8047V192.609H54.7734V194.602H42.2109ZM43.2891 198.727C43.2891 196.617 45.3633 195.27 48.4922 195.258C51.6328 195.27 53.6602 196.617 53.6719 198.727C53.6602 200.895 51.6328 202.195 48.4922 202.195C45.3633 202.195 43.2891 200.895 43.2891 198.727ZM45.0469 205.242V203.344H58.8984V208.453H47.6484V209.953H59.5547V211.898H45.0703V206.648H56.2969V205.242H45.0469ZM45.8203 198.727C45.8086 199.77 46.8516 200.309 48.4922 200.32C50.1328 200.309 51.1875 199.77 51.1875 198.727C51.1875 197.719 50.1328 197.121 48.4922 197.133C46.8516 197.121 45.8086 197.719 45.8203 198.727ZM79.6641 192.656C79.6523 195.316 82.6406 198.023 87.1641 198.609L86.1328 200.719C82.5352 200.18 79.6758 198.41 78.293 196.02C76.9102 198.41 74.0625 200.18 70.5 200.719L69.4688 198.609C73.9453 198.023 76.9219 195.34 76.9219 192.656V191.578H79.6641V192.656ZM68.625 204.703V202.547H87.9375V204.703H79.5234V212.086H76.9453V204.703H68.625ZM102.586 204.68C102.586 206.449 103.395 208.289 105.211 209.461C107.062 208.207 107.918 206.285 107.93 204.68V203.812H110.484V204.68C110.473 206.895 111.785 208.98 114.562 209.859L113.297 211.758C111.234 211.066 109.875 209.719 109.137 208.02C108.445 209.695 107.203 211.172 105.281 211.945C103.266 211.207 102 209.777 101.332 208.102C100.57 209.73 99.2227 211.055 97.2656 211.758L95.9766 209.859C98.7188 208.898 100.043 206.742 100.055 204.68V203.812H102.586V204.68ZM95.4375 197.086C95.4375 194.109 97.875 192.047 101.156 192.047C104.426 192.047 106.863 194.109 106.852 197.086C106.863 200.027 104.426 202.113 101.156 202.102C97.875 202.113 95.4375 200.027 95.4375 197.086ZM97.9922 197.086C97.9805 198.82 99.3047 199.934 101.156 199.945C102.973 199.934 104.297 198.82 104.297 197.086C104.297 195.352 102.973 194.238 101.156 194.25C99.3047 194.238 97.9805 195.352 97.9922 197.086ZM110.086 202.922V190.922H112.711V202.922H110.086ZM121.594 192.445C124.453 192.445 126.574 194.836 126.949 198.703H130.992V190.898H133.57V212.109H130.992V200.812H126.973C126.691 204.902 124.535 207.422 121.594 207.422C118.406 207.422 116.145 204.527 116.156 199.922C116.145 195.352 118.406 192.445 121.594 192.445ZM118.664 199.922C118.652 203.18 119.848 205.066 121.594 205.078C123.352 205.066 124.535 203.18 124.547 199.922C124.535 196.688 123.352 194.789 121.594 194.789C119.848 194.789 118.652 196.688 118.664 199.922ZM155.906 207.375V209.508H136.547V207.375H141.023V202.02C139.336 201.047 138.316 199.523 138.328 197.648C138.316 194.273 141.621 192.047 146.18 192.047C150.762 192.047 154.09 194.273 154.078 197.648C154.09 199.5 153.094 200.988 151.453 201.961V207.375H155.906ZM140.883 197.648C140.871 199.816 143.016 201.199 146.18 201.188C149.332 201.199 151.523 199.816 151.523 197.648C151.523 195.445 149.332 194.098 146.18 194.109C143.016 194.098 140.871 195.445 140.883 197.648ZM143.602 207.375H148.805V202.957C147.996 203.133 147.117 203.227 146.18 203.227C145.266 203.227 144.398 203.133 143.602 202.969V207.375ZM159.867 210.188C158.859 210.188 158.027 209.367 158.039 208.359C158.027 207.375 158.859 206.566 159.867 206.555C160.84 206.566 161.672 207.375 161.672 208.359C161.672 209.367 160.84 210.188 159.867 210.188Z" fill="black"/>
</svg>
