<svg width="23" height="23" viewBox="0 0 23 23" fill="none" xmlns="http://www.w3.org/2000/svg">
<rect width="23" height="23" fill="white"/>
<path d="M17.6469 2.99994H5.00003C3.89546 2.99994 3.00003 3.89537 3.00003 4.99994V15.5816C3.00003 16.6862 3.89546 17.5816 5.00003 17.5816H9.69396C9.75612 17.5816 9.81475 17.6105 9.8526 17.6598L11.1628 19.3666C11.2435 19.4717 11.4022 19.4707 11.4816 19.3646L12.755 17.6618C12.7928 17.6113 12.8521 17.5816 12.9152 17.5816H17.6469C18.7515 17.5816 19.6469 16.6862 19.6469 15.5816V4.99994C19.6469 3.89537 18.7515 2.99994 17.6469 2.99994Z" fill="#2891FB"/>
<path d="M7.50003 6.99994H15.5M7.50003 9.99994H15.5M7.50003 12.9999H13" stroke="white" stroke-width="1.2" stroke-linecap="round"/>
</svg>
