<svg width="257" height="99" viewBox="0 0 257 99" fill="none" xmlns="http://www.w3.org/2000/svg">
<path d="M20.0391 11.8672V13.9531H11.8594V17.6094H9.28125V13.9531H0.679688V11.8672H20.0391ZM3.02344 21.6641V15.8281H5.60156V19.5547H17.9062V21.6641H3.02344ZM3.21094 10.2031V1.57812H5.78906V3.96875H14.9297V1.57812H17.5078V10.2031H3.21094ZM5.78906 8.14062H14.9297V5.91406H5.78906V8.14062ZM39.0469 0.898438V11.7031H36.4688V0.898438H39.0469ZM21.4219 9.64062C24.8555 8.55078 26.6602 5.83203 26.6484 3.05469V1.41406H29.3438V3.05469C29.332 5.75 31.125 8.26953 34.4766 9.28906L33.2109 11.3047C30.75 10.543 28.9922 8.97266 28.0312 6.95703C27.0703 9.14844 25.2656 10.8711 22.7344 11.6797L21.4219 9.64062ZM25.0312 14.7031V12.6875H39.0938V18.1953H27.6328V19.8359H39.7266V21.8984H25.0781V16.25H36.4922V14.7031H25.0312ZM61.5 9.5V11.5625H53.1094V13.1562H59.0859V18.3594H47.0391V19.9062H59.6719V21.8984H44.4844V16.4844H56.5312V15.125H44.4609V13.1562H50.5078V11.5625H42.1875V9.5H61.5ZM44.625 8.16406V1.55469H59.0156V8.16406H44.625ZM47.1797 6.125H56.4141V3.59375H47.1797V6.125ZM72.5625 1.22656C77.3906 1.23828 80.1914 2.51562 80.2031 4.85938C80.1914 7.22656 77.3906 8.50391 72.5625 8.51562C67.7461 8.50391 64.9219 7.22656 64.9219 4.85938C64.9219 2.51562 67.7461 1.23828 72.5625 1.22656ZM62.9297 11.7266V9.64062H82.2422V11.7266H62.9297ZM65.2031 15.0781V13.1562H79.8281V18.3359H67.7812V19.9062H80.4141V21.8984H65.2266V16.4844H77.2734V15.0781H65.2031ZM67.6641 4.85938C67.6523 6.03125 69.3398 6.57031 72.5625 6.57031C75.832 6.57031 77.5078 6.03125 77.5078 4.85938C77.5078 3.76953 75.832 3.14844 72.5625 3.14844C69.3398 3.14844 67.6523 3.76953 67.6641 4.85938ZM94.2656 13.6016V15.6172H103.594V13.6016H106.195V21.8281H91.6875V13.6016H94.2656ZM89.3672 12.4062V10.2734H108.68V12.4062H89.3672ZM90.3516 7.10938C94.7812 6.55859 97.6758 4.28516 97.6875 1.92969V1.13281H100.359V1.92969C100.359 4.21484 103.266 6.59375 107.648 7.10938L106.734 9.17188C103.184 8.69141 100.383 7.10938 99.0234 4.96484C97.6523 7.12109 94.8398 8.69141 91.3125 9.17188L90.3516 7.10938ZM94.2656 19.7656H103.594V17.6094H94.2656V19.7656ZM129.445 11V13.1094H110.109V11H129.445ZM112.242 17.2578V15.1719H127.102V22.1328H124.523V17.2578H112.242ZM112.477 9.10156V1.64844H127.102V3.73438H115.078V7.01562H127.289V9.10156H112.477ZM147.562 0.921875V7.57812H150.516V9.73438H147.562V16.7422H144.961V0.921875H147.562ZM130.875 5.35156V3.26562H135.867V0.898438H138.469V3.26562H143.438V5.35156H130.875ZM131.953 10.2734C131.953 7.83594 134.074 6.21875 137.156 6.21875C140.215 6.21875 142.324 7.83594 142.336 10.2734C142.324 12.6992 140.215 14.2812 137.156 14.2812C134.074 14.2812 131.953 12.6992 131.953 10.2734ZM133.992 21.6641V15.5H136.594V19.5547H148.406V21.6641H133.992ZM134.484 10.2734C134.473 11.5508 135.551 12.2773 137.156 12.2656C138.762 12.2773 139.852 11.5508 139.852 10.2734C139.852 8.98438 138.762 8.23438 137.156 8.23438C135.551 8.23438 134.473 8.98438 134.484 10.2734ZM175.547 3.17188V5.28125H158.25V3.17188H165.633V0.851562H168.211V3.17188H175.547ZM157.289 16.7188V14.5859H176.648V16.7188H168.211V22.1094H165.633V16.7188H157.289ZM159.75 9.82812C159.75 7.50781 162.445 6.24219 166.922 6.24219C171.398 6.24219 174.094 7.50781 174.094 9.82812C174.094 12.1367 171.398 13.4141 166.922 13.4141C162.445 13.4141 159.75 12.1367 159.75 9.82812ZM162.469 9.82812C162.457 10.918 163.992 11.4805 166.922 11.4688C169.84 11.4805 171.387 10.918 171.398 9.82812C171.387 8.75 169.84 8.1875 166.922 8.1875C163.992 8.1875 162.457 8.75 162.469 9.82812ZM190.898 14.3047H193.688L195.129 16.2031C196.102 15.1953 196.676 13.625 196.664 11.5156C196.676 7.63672 194.73 5.53906 191.953 5.53906C189.188 5.53906 187.23 7.63672 187.242 11.5156C187.23 15.3945 189.188 17.4922 191.953 17.4922C192.398 17.4922 192.82 17.4336 193.219 17.3281L190.898 14.3047ZM184.172 11.5156C184.16 6.03125 187.488 2.79688 191.953 2.79688C196.395 2.79688 199.746 6.03125 199.734 11.5156C199.746 14.5977 198.691 16.9648 196.98 18.4531L199.336 21.4766H196.359L194.941 19.6836C194.027 20.0469 193.02 20.2344 191.953 20.2344C187.488 20.2344 184.16 16.9883 184.172 11.5156ZM202.477 20V3.03125H208.852C212.742 3.03125 214.816 5.21094 214.828 8.44531C214.816 10.7539 213.762 12.4648 211.77 13.2734L215.438 20H212.039L208.711 13.7891H205.523V20H202.477ZM205.523 11.2344H208.383C210.68 11.2461 211.711 10.2617 211.711 8.44531C211.711 6.64062 210.68 5.58594 208.383 5.58594H205.523V11.2344ZM233.812 2.77344V4.69531C233.801 7.26172 233.836 10.2266 232.875 14.7031L230.32 14.4453C230.695 12.7344 230.918 11.2227 231.047 9.875L218.555 10.5781L218.18 8.35156L231.199 7.88281C231.246 6.78125 231.258 5.79688 231.258 4.88281H218.836V2.77344H233.812ZM216.586 19.4844V17.3281H223.711V12.1016H226.289V17.3281H235.898V19.4844H216.586ZM254.531 10.8359V12.9219H239.672V2.75H254.367V4.85938H242.25V10.8359H254.531ZM237.328 19.3906V17.2344H256.688V19.3906H237.328ZM20.0391 48.5078V50.4766H0.679688V48.5078H20.0391ZM2.92969 53.5703V51.7422H17.6953V56.5703H5.55469V58.0469H18.3281V59.8516H2.95312V54.8828H15.1172V53.5703H2.92969ZM3.07031 41.1719V39.3672H17.6484V44.1484H5.71875V45.5312H18.0234V47.3125H3.14062V42.4609H15.0469V41.1719H3.07031ZM38.0859 41.8047C38.0859 45.0742 41.2852 48.3672 45.7266 49.1406L44.5547 51.3203C41.0039 50.582 38.0977 48.4258 36.7148 45.5781C35.3203 48.4023 32.4141 50.5703 28.875 51.3203L27.7266 49.1406C32.0977 48.3438 35.3086 45.0625 35.3203 41.8047V40.2344H38.0859V41.8047ZM27.1406 57.3906V55.2344H46.5V57.3906H27.1406ZM66 38.9219V54.8359H63.5156V47.3594H61.2891V54.2031H58.8281V39.3203H61.2891V45.2266H63.5156V38.9219H66ZM47.8828 50.7578C50.543 49.6445 52.3242 48.2734 53.4023 46.6211L48.3516 47.1719L48 45.0391L54.3164 44.6875C54.5039 44.0898 54.6328 43.457 54.7031 42.7891H48.9375V40.7031H57.2578C57.2578 46.0938 55.0547 50.1016 49.125 52.6094L47.8828 50.7578ZM51.7266 59.6641V52.9375H54.3281V57.5547H66.6094V59.6641H51.7266ZM85.2188 38.8984V47.3359H88.4766V49.4922H85.2188V60.0859H82.6406V38.8984H85.2188ZM68.5078 44.2422V42.1562H73.5234V39.2031H76.125V42.1562H81V44.2422H68.5078ZM69.4922 50.6172C69.4688 47.6875 71.7422 45.6133 74.8359 45.625C77.8828 45.6133 80.1445 47.6875 80.1562 50.6172C80.1445 53.5352 77.8828 55.5859 74.8359 55.5859C71.7422 55.5859 69.4688 53.5352 69.4922 50.6172ZM71.9766 50.6172C71.9648 52.3398 73.1719 53.4414 74.8359 53.4297C76.4648 53.4414 77.6484 52.3398 77.6719 50.6172C77.6484 48.8945 76.4648 47.7578 74.8359 47.7578C73.1719 47.7578 71.9648 48.8945 71.9766 50.6172ZM100.242 40.6797V42.3672H104.508V38.9219H107.109V54.3438H104.508V49H100.242V50.8281H90.2812V40.6797H100.242ZM92.8828 48.7891H97.6641V42.7422H92.8828V48.7891ZM93.1406 59.6641V52.9141H95.7891V57.5547H107.578V59.6641H93.1406ZM100.242 46.9141H104.508V44.5H100.242V46.9141ZM135.117 47.5V49.5625H126.727V51.1562H132.703V56.3594H120.656V57.9062H133.289V59.8984H118.102V54.4844H130.148V53.125H118.078V51.1562H124.125V49.5625H115.805V47.5H135.117ZM118.242 46.1641V39.5547H132.633V46.1641H118.242ZM120.797 44.125H130.031V41.5938H120.797V44.125ZM154.289 38.9219V54.4609H151.688V47.3359H147.609V45.1797H151.688V38.9219H154.289ZM136.828 50.1484C141.387 48.707 144.398 46 144.902 42.6484H137.93V40.5156H147.75C147.75 46.1055 144.059 50.2773 137.93 52.2344L136.828 50.1484ZM140.484 59.6641V52.8906H143.133V57.5547H154.828V59.6641H140.484ZM182.297 50.7109V52.8203H173.883V60.0625H171.305V52.8203H162.984V50.7109H182.297ZM163.992 47.2422C168.152 46.7148 170.941 44.4766 171.129 42.1562H164.766V40.0938H180.516V42.1562H174.152C174.328 44.4766 177.094 46.7148 181.289 47.2422L180.352 49.2812C176.742 48.7656 173.93 47.1133 172.641 44.8281C171.34 47.1133 168.551 48.7656 164.977 49.2812L163.992 47.2422ZM201.375 38.9219V54.2266H198.75V38.9219H201.375ZM184.102 45.6016C184.102 42.5195 186.598 40.3164 189.82 40.3047C193.043 40.3164 195.527 42.5195 195.516 45.6016C195.527 48.7305 193.043 50.9219 189.82 50.9219C186.598 50.9219 184.102 48.7305 184.102 45.6016ZM186.656 45.6016C186.645 47.4766 188.004 48.6484 189.82 48.6484C191.59 48.6484 192.961 47.4766 192.961 45.6016C192.961 43.7734 191.59 42.5781 189.82 42.5781C188.004 42.5781 186.645 43.7734 186.656 45.6016ZM187.359 59.6641V52.6797H189.984V57.5547H201.961V59.6641H187.359ZM222.75 38.8984V60.0859H220.242V38.8984H222.75ZM204.68 48.0625C204.68 43.3984 206.484 40.5039 209.25 40.5156C211.816 40.5039 213.562 42.9062 213.867 46.8672H215.906V39.2734H218.391V59.0547H215.906V48.9766H213.891C213.645 53.1133 211.875 55.6445 209.25 55.6328C206.484 55.6445 204.68 52.7383 204.68 48.0625ZM207.094 48.0625C207.082 51.3789 207.902 53.1602 209.25 53.1484C210.656 53.1602 211.488 51.3789 211.5 48.0625C211.488 44.7578 210.656 42.9648 209.25 42.9766C207.902 42.9648 207.082 44.7578 207.094 48.0625ZM248.648 38.9219V54.4609H246.047V49.2109H240.996C239.988 50.3477 238.488 51.0273 236.789 51.0391C233.59 51.0273 231.188 48.7539 231.188 45.625C231.188 42.4609 233.59 40.1992 236.789 40.1875C238.477 40.1992 239.977 40.8672 240.984 41.9922H246.047V38.9219H248.648ZM233.672 45.625C233.672 47.5117 234.973 48.7188 236.789 48.7188C238.523 48.7188 239.848 47.5117 239.859 45.625C239.848 43.7266 238.523 42.5078 236.789 42.5078C234.973 42.5078 233.672 43.7266 233.672 45.625ZM234.75 59.6641V52.8672H237.352V57.5547H249.188V59.6641H234.75ZM242.133 44.1016C242.262 44.582 242.344 45.0859 242.344 45.625C242.344 46.1406 242.273 46.6328 242.145 47.1016H246.047V44.1016H242.133ZM11.1797 78.1172V84.3984H4.125V86.7656C7.71094 86.7422 10.1953 86.625 13.0781 86.1328L13.3594 88.2188C10.207 88.7695 7.44141 88.9102 3.25781 88.8984H1.52344V82.3828H8.625V80.2266H1.5V78.1172H11.1797ZM3.30469 92.8828V90.7969H17.4141V98.0625H14.8125V92.8828H3.30469ZM14.8125 89.7891V76.9219H17.4141V82.1016H20.3906V84.2578H17.4141V89.7891H14.8125ZM39.0703 76.8984V98.1094H36.4453V76.8984H39.0703ZM22.125 85.9219C22.1133 81.3516 24.4453 78.4453 27.6562 78.4453C30.832 78.4453 33.1758 81.3516 33.1875 85.9219C33.1758 90.5273 30.832 93.4219 27.6562 93.4219C24.4453 93.4219 22.1133 90.5273 22.125 85.9219ZM24.6328 85.9219C24.6328 89.1797 25.8633 91.0664 27.6562 91.0781C29.4375 91.0664 30.6562 89.1797 30.6562 85.9219C30.6562 82.6875 29.4375 80.7891 27.6562 80.7891C25.8633 80.7891 24.6328 82.6875 24.6328 85.9219ZM64.4766 76.8984V85.1719H67.6172V87.3516H64.4766V98.0391H61.875V76.8984H64.4766ZM47.7656 92.25C52.9219 89.6719 55.7109 86.0859 56.2266 81.2578H48.9141V79.1016H58.875C58.8633 85.3242 56.2852 90.7969 49.2422 94.2656L47.7656 92.25ZM85.7578 82.4062V84.5156H71.1328V77.2734H73.7344V82.4062H85.7578ZM68.625 88.6641V86.5547H87.9609V88.6641H68.625ZM70.875 94.1016C70.875 91.6055 73.6523 90.1992 78.2578 90.1875C82.8281 90.1992 85.582 91.6055 85.5938 94.1016C85.582 96.5859 82.8281 97.9922 78.2578 97.9922C73.6523 97.9922 70.875 96.5859 70.875 94.1016ZM73.5234 94.1016C73.5117 95.3203 75.1758 95.9883 78.2578 96C81.293 95.9883 82.9688 95.3203 82.9922 94.1016C82.9688 92.8477 81.293 92.2383 78.2578 92.2266C75.1758 92.2383 73.5117 92.8477 73.5234 94.1016ZM99.7031 80.2734V82.3594H89.3203V80.2734H93.2578V77.5078H95.8359V80.2734H99.7031ZM89.9297 88.4062C89.9062 85.5234 91.8633 83.4727 94.5469 83.4844C97.2422 83.4727 99.1641 85.5234 99.1641 88.4062C99.1641 91.3477 97.2422 93.3984 94.5469 93.3984C91.8633 93.3984 89.9062 91.3477 89.9297 88.4062ZM92.2266 88.4062C92.2148 90.1172 93.1758 91.1836 94.5469 91.1719C95.9062 91.1836 96.8672 90.1172 96.8672 88.4062C96.8672 86.7422 95.9062 85.6406 94.5469 85.6406C93.1758 85.6406 92.2148 86.7422 92.2266 88.4062ZM100.594 97.125V77.3438H103.031V85.6172H105.094V76.8984H107.578V98.0859H105.094V87.7266H103.031V97.125H100.594ZM129.469 93.375V95.5078H110.109V93.375H114.586V88.0195C112.898 87.0469 111.879 85.5234 111.891 83.6484C111.879 80.2734 115.184 78.0469 119.742 78.0469C124.324 78.0469 127.652 80.2734 127.641 83.6484C127.652 85.5 126.656 86.9883 125.016 87.9609V93.375H129.469ZM114.445 83.6484C114.434 85.8164 116.578 87.1992 119.742 87.1875C122.895 87.1992 125.086 85.8164 125.086 83.6484C125.086 81.4453 122.895 80.0977 119.742 80.1094C116.578 80.0977 114.434 81.4453 114.445 83.6484ZM117.164 93.375H122.367V88.957C121.559 89.1328 120.68 89.2266 119.742 89.2266C118.828 89.2266 117.961 89.1328 117.164 88.9688V93.375ZM133.43 96.1875C132.422 96.1875 131.59 95.3672 131.602 94.3594C131.59 93.375 132.422 92.5664 133.43 92.5547C134.402 92.5664 135.234 93.375 135.234 94.3594C135.234 95.3672 134.402 96.1875 133.43 96.1875Z" fill="black"/>
</svg>
