<svg width="17" height="17" viewBox="0 0 17 17" fill="none" xmlns="http://www.w3.org/2000/svg">
<path d="M6.91202 16V16.65C7.271 16.65 7.56202 16.359 7.56202 16H6.91202ZM10.1937 16H9.54369C9.54369 16.359 9.83471 16.65 10.1937 16.65V16ZM7.92048 1.17598L8.2846 1.71441L7.92048 1.17598ZM9.07952 1.17598L8.7154 1.71441L9.07952 1.17598ZM2.5 16V16.65H2.5L2.5 16ZM15.5795 5.57169L15.9436 5.03326L15.5795 5.57169ZM1.42048 5.57169L1.05635 5.03326H1.05635L1.42048 5.57169ZM14.5022 16L14.5025 16.65L14.5031 16.65L14.5022 16ZM7.91202 9.99303H9.19369V8.69303H7.91202V9.99303ZM9.54369 10.294V16H10.8437V10.294H9.54369ZM9.19369 9.99303C9.41815 9.99303 9.54369 10.1582 9.54369 10.294H10.8437C10.8437 9.37943 10.0738 8.69303 9.19369 8.69303V9.99303ZM7.56202 10.294C7.56202 10.1582 7.68756 9.99303 7.91202 9.99303V8.69303C7.03191 8.69303 6.26202 9.37943 6.26202 10.294H7.56202ZM15.35 6.34671V14.5735H16.65V6.34671H15.35ZM1.65 14.5735V6.34671H0.35V14.5735H1.65ZM1.7846 6.11013L8.2846 1.71441L7.55635 0.637541L1.05635 5.03326L1.7846 6.11013ZM8.7154 1.71441L15.2154 6.11013L15.9436 5.03326L9.44365 0.637541L8.7154 1.71441ZM8.2846 1.71441C8.4116 1.62853 8.5884 1.62853 8.7154 1.71441L9.44365 0.637541C8.87673 0.254154 8.12327 0.254152 7.55635 0.637541L8.2846 1.71441ZM2.5 15.35C1.9994 15.35 1.65 14.972 1.65 14.5735H0.35C0.35 15.7507 1.34375 16.65 2.5 16.65V15.35ZM16.65 6.34671C16.65 5.81431 16.3788 5.32755 15.9436 5.03326L15.2154 6.11013C15.3078 6.17262 15.35 6.26345 15.35 6.34671H16.65ZM1.65 6.34671C1.65 6.26345 1.69219 6.17262 1.7846 6.11013L1.05635 5.03326C0.621171 5.32755 0.35 5.81431 0.35 6.34671H1.65ZM7.56202 16V10.294H6.26202V16H7.56202ZM2.5 16.65L6.91202 16.65V15.35L2.5 15.35L2.5 16.65ZM15.35 14.5735C15.35 14.9716 15.0012 15.3493 14.5013 15.35L14.5031 16.65C15.658 16.6484 16.65 15.7497 16.65 14.5735H15.35ZM14.5019 15.35L14.4997 15.35L14.5003 16.65L14.5025 16.65L14.5019 15.35ZM10.1937 16.65H14.5022V15.35H10.1937V16.65Z" fill="#333333"/>
</svg>
