<svg width="20" height="20" viewBox="0 -3 17 20" fill="none" xmlns="http://www.w3.org/2000/svg">
<path d="M9.095 9.22183H7.67234C7.05931 9.22183 6.56234 9.69245 6.56234 10.273V16.58L1.665 16.58C0.745446 16.58 0 15.8741 0 15.0032V5.9099C0 5.56964 0.173915 5.25043 0.466729 5.05324L7.68173 0.194513C8.06685 -0.064838 8.58315 -0.0648373 8.96827 0.194513L16.1833 5.05324C16.4761 5.25043 16.65 5.56964 16.65 5.9099V15.0032C16.65 15.8733 15.9059 16.5788 14.9874 16.58L14.985 16.58L10.205 16.58V10.273C10.205 9.69245 9.70804 9.22183 9.095 9.22183Z" fill="#2891FB"/>
</svg>
