<svg width="273" height="123" viewBox="0 0 273 123" fill="none" xmlns="http://www.w3.org/2000/svg">
<path d="M10.583 5.54297C10.5684 8.38477 12.7217 11.168 16.8818 12.2812L15.417 14.7715C12.3555 13.9512 10.1729 12.1934 8.98633 9.9375C7.81445 12.4277 5.58789 14.3613 2.46777 15.2695L0.915039 12.6914C5.08984 11.5635 7.33105 8.64844 7.33105 5.54297V5.45508H1.79395V2.87695H7.33105V0.00585938H10.6123V2.87695H16.1201V5.45508H10.583V5.54297ZM3.52246 24C8.06348 23.3848 11.0078 21.3926 11.6377 19.1367H4.60645V16.5293H22.3311V19.1367H15.3291C15.959 21.334 18.918 23.3994 23.4443 24.0293L22.2725 26.5195C18.127 25.9336 14.9922 24.1611 13.4688 21.7588C11.9453 24.1465 8.8252 25.875 4.72363 26.4609L3.52246 24ZM18.6982 15.2988V0.123047H21.9502V6.27539H25.6416V8.9707H21.9502V15.2988H18.6982ZM49.1084 0.123047V26.6074H45.8271V0.123047H49.1084ZM27.165 19.3125C34.1084 16.0166 37.3018 11.5342 37.8877 5.51367H28.5127V2.93555H41.1982C41.1982 10.8164 38.1367 17.5107 28.8643 21.9199L27.165 19.3125ZM67.2725 2.05664C70.8467 2.05664 73.498 5.04492 73.9668 9.87891H79.0205V0.123047H82.2432V26.6367H79.0205V12.5156H73.9961C73.6445 17.6279 70.9492 20.7773 67.2725 20.7773C63.2881 20.7773 60.4609 17.1592 60.4756 11.4023C60.4609 5.68945 63.2881 2.05664 67.2725 2.05664ZM63.6104 11.4023C63.5957 15.4746 65.0898 17.833 67.2725 17.8477C69.4697 17.833 70.9492 15.4746 70.9639 11.4023C70.9492 7.35938 69.4697 4.98633 67.2725 4.98633C65.0898 4.98633 63.5957 7.35938 63.6104 11.4023ZM108.142 0.123047V26.6367H104.89V15.7676H100.056V13.1016H104.89V8.56055H100.144V5.89453H104.89V0.123047H108.142ZM86.8428 5.01562V2.4082H98.6494V12.3105H90.1533V17.9355C93.6543 17.9209 96.6865 17.7598 100.261 17.2324L100.524 19.8984C96.4668 20.543 93.0977 20.6309 88.9814 20.6309H86.9307V9.76172H95.4561V5.01562H86.8428ZM134.099 0.152344V16.7051H130.817V15.5332H125.778V13.2773H130.817V0.152344H134.099ZM111.774 10.2598C116.579 10.2305 123.2 10.1865 128.854 9.38086L129.03 11.666C126.716 12.0615 124.299 12.3252 121.911 12.4863V16.6465H118.63V12.6621C116.301 12.75 114.074 12.7793 112.126 12.7793L111.774 10.2598ZM113.034 23.8828C116.433 22.8721 118.176 20.499 118.19 18.082V17.6719H121.325V18.082C121.311 20.0596 122.365 22.1689 124.636 23.4727C126.892 22.125 127.976 19.9863 127.976 18.082V17.6719H131.169V18.082C131.169 20.6016 132.854 22.916 136.354 23.8828L134.802 26.2852C132.194 25.4795 130.451 23.9121 129.528 21.9199C128.679 23.8975 127.097 25.6113 124.636 26.5195C122.189 25.6553 120.622 23.9707 119.772 22.0078C118.82 23.9414 117.077 25.4941 114.558 26.2852L113.034 23.8828ZM113.796 4.81055C113.796 2.24707 116.374 0.650391 120.417 0.650391C124.372 0.650391 126.979 2.24707 127.009 4.81055C126.979 7.38867 124.372 8.9707 120.417 8.9707C116.374 8.9707 113.796 7.38867 113.796 4.81055ZM116.843 4.81055C116.813 6.02637 118.176 6.68555 120.417 6.68555C122.57 6.68555 123.933 6.02637 123.933 4.81055C123.933 3.65332 122.57 2.9502 120.417 2.93555C118.176 2.9502 116.813 3.65332 116.843 4.81055ZM151.501 2.08594V4.72266H142.624V13.1309C146.755 13.1162 149.597 12.9551 152.819 12.3398L153.142 14.9766C149.538 15.6064 146.374 15.7822 141.481 15.7969H139.401V2.08594H151.501ZM142.595 26.1973V17.877H145.876V23.5605H160.671V26.1973H142.595ZM149.89 9.79102V7.21289H156.745V0.152344H159.997V19.4297H156.745V9.79102H149.89ZM195.036 13.834V16.4414H184.812V21.0117H181.589V16.4414H170.837V13.834H195.036ZM173.767 26.0801V18.7852H176.989V23.4434H192.37V26.0801H173.767ZM174.001 11.7539V0.972656H177.224V3.96094H188.649V0.972656H191.872V11.7539H174.001ZM177.224 9.17578H188.649V6.39258H177.224V9.17578ZM218.796 0.123047V13.6289H215.573V0.123047H218.796ZM196.765 11.0508C201.057 9.68848 203.312 6.29004 203.298 2.81836V0.767578H206.667V2.81836C206.652 6.1875 208.894 9.33691 213.083 10.6113L211.501 13.1309C208.425 12.1787 206.228 10.2158 205.026 7.69629C203.825 10.4355 201.569 12.5889 198.405 13.5996L196.765 11.0508ZM201.276 17.3789V14.8594H218.854V21.7441H204.528V23.7949H219.646V26.373H201.335V19.3125H215.603V17.3789H201.276ZM246.862 10.875V13.4531H236.374V15.4453H243.845V21.9492H228.786V23.8828H244.577V26.373H225.593V19.6055H240.651V17.9062H225.563V15.4453H233.122V13.4531H222.722V10.875H246.862ZM225.769 9.20508V0.943359H243.757V9.20508H225.769ZM228.962 6.65625H240.505V3.49219H228.962V6.65625ZM260.69 0.533203C266.726 0.547852 270.227 2.14453 270.241 5.07422C270.227 8.0332 266.726 9.62988 260.69 9.64453C254.67 9.62988 251.14 8.0332 251.14 5.07422C251.14 2.14453 254.67 0.547852 260.69 0.533203ZM248.649 13.6582V11.0508H272.79V13.6582H248.649ZM251.491 17.8477V15.4453H269.772V21.9199H254.714V23.8828H270.505V26.373H251.521V19.6055H266.579V17.8477H251.491ZM254.567 5.07422C254.553 6.53906 256.662 7.21289 260.69 7.21289C264.777 7.21289 266.872 6.53906 266.872 5.07422C266.872 3.71191 264.777 2.93555 260.69 2.93555C256.662 2.93555 254.553 3.71191 254.567 5.07422ZM216.452 68.8359V71.5312H192.253V68.8359H202.683V64.5293H195.124V55.8574H210.358V52.5762H195.065V49.9395H213.581V58.4355H198.376V61.8633H214.196V64.5293H205.905V68.8359H216.452ZM67.3311 112.529V114.961H78.8447V112.529H82.0674V122.285H64.1084V112.529H67.3311ZM60.0654 107.432C65.0312 107.432 71.5352 107.432 77.2334 106.699L77.4385 109.014C75.2852 109.38 73.0586 109.614 70.876 109.775V113.174H67.624V109.951C65.0605 110.039 62.6289 110.039 60.4756 110.039L60.0654 107.432ZM61.0908 103.682C65.1631 102.817 67.3311 100.503 67.3311 97.9395V96.7969H70.6709V97.9395C70.6855 100.356 72.8682 102.51 76.8818 103.301L75.4756 105.762C72.4141 105.117 70.2168 103.652 69.0449 101.646C67.9023 103.813 65.6758 105.469 62.5264 106.172L61.0908 103.682ZM67.3311 119.678H78.8447V117.451H67.3311V119.678ZM78.8154 111.387V96.1523H82.0674V111.387H78.8154ZM107.585 98.5547V101.104C107.556 104.399 107.556 108.076 106.53 113.613L103.249 113.262C104.289 108.105 104.289 104.341 104.304 101.162H88.4834V98.5547H107.585ZM85.9639 119.18V116.514H94.8701V107.314H98.0928V116.514H110.104V119.18H85.9639ZM139.899 96.123V103.74H143.591V106.465H139.899V115.225H136.589V96.123H139.899ZM118.923 109.893C124.987 108.135 128.576 104.839 129.133 100.811H120.036V98.1445H132.692C132.707 105.176 128.107 110.2 120.271 112.471L118.923 109.893ZM122.878 122.08V113.262H126.188V119.443H140.896V122.08H122.878ZM167.116 96.123V115.693H163.864V108.779H160.114V106.084H163.864V103.564H160.114V100.928H163.864V96.123H167.116ZM144.968 109.512C145.891 109.512 146.901 109.512 147.956 109.497V100.723H145.642V98.1152H159.733V100.723H157.39V109.189C158.386 109.116 159.353 109.028 160.29 108.926L160.437 111.299C155.412 112.104 149.538 112.207 145.319 112.207L144.968 109.512ZM149.714 122.08V114.17H152.995V119.443H167.79V122.08H149.714ZM151.12 109.453C152.146 109.438 153.2 109.395 154.255 109.351V100.723H151.12V109.453ZM191.608 96.123V106.67H195.681V109.365H191.608V122.607H188.386V96.123H191.608ZM170.72 102.803V100.195H176.989V96.5039H180.241V100.195H186.335V102.803H170.72ZM171.95 110.771C171.921 107.109 174.763 104.517 178.63 104.531C182.438 104.517 185.266 107.109 185.28 110.771C185.266 114.419 182.438 116.982 178.63 116.982C174.763 116.982 171.921 114.419 171.95 110.771ZM175.056 110.771C175.041 112.925 176.55 114.302 178.63 114.287C180.666 114.302 182.146 112.925 182.175 110.771C182.146 108.618 180.666 107.197 178.63 107.197C176.55 107.197 175.041 108.618 175.056 110.771ZM219.646 96.123V122.607H216.54V96.123H219.646ZM196.589 114.697C202.067 111.46 204.587 107.314 205.085 101.982H197.937V99.3457H208.308C208.308 101.909 207.985 104.312 207.268 106.553H210.944V96.7676H214.021V121.348H210.944V109.16H206.198C204.66 112.192 202.17 114.844 198.435 117.012L196.589 114.697Z" fill="#303440"/>
<path d="M68.7959 72L64.2842 56.0918H68.0928L70.9053 67.2832H71.0518L73.8936 56.0918H77.6729L80.5439 67.2246H80.6904L83.4736 56.0918H87.2822L82.7705 72H78.874L75.8857 61.2188H75.6807L72.6924 72H68.7959ZM93.4053 62.6836V72H89.6553V50.7891H93.3174V58.7871H93.5225C94.2402 56.9854 95.793 55.8867 98.2393 55.8867C101.535 55.8867 103.718 58.0254 103.718 61.8633V72H99.9971V62.4492C99.9824 60.2812 98.8252 59.0361 96.8623 59.0508C94.8408 59.0361 93.4053 60.3691 93.4053 62.6836ZM114.323 72.3223C109.533 72.3223 106.589 69.1289 106.589 64.1484C106.589 59.2266 109.577 55.8867 114.118 55.8867C118.015 55.8867 121.384 58.333 121.384 63.9141V65.0859H110.28C110.339 67.7959 111.936 69.4072 114.353 69.3926C115.993 69.4072 117.092 68.7041 117.575 67.752H121.237C120.563 70.5059 118.015 72.3223 114.323 72.3223ZM110.295 62.5371H117.81C117.795 60.3691 116.33 58.7871 114.177 58.7871C111.936 58.7871 110.427 60.5156 110.295 62.5371ZM124.284 72V56.0918H127.917V58.7285H128.093C128.664 56.8975 130.188 55.8574 132.019 55.8574C132.429 55.8574 133.015 55.9014 133.366 55.9453V59.4023C133.029 59.2852 132.253 59.1826 131.638 59.168C129.558 59.1826 128.034 60.6182 128.034 62.625V72H124.284ZM142.126 72.3223C137.336 72.3223 134.392 69.1289 134.392 64.1484C134.392 59.2266 137.38 55.8867 141.921 55.8867C145.817 55.8867 149.187 58.333 149.187 63.9141V65.0859H138.083C138.142 67.7959 139.738 69.4072 142.155 69.3926C143.796 69.4072 144.895 68.7041 145.378 67.752H149.04C148.366 70.5059 145.817 72.3223 142.126 72.3223ZM138.098 62.5371H145.612C145.598 60.3691 144.133 58.7871 141.979 58.7871C139.738 58.7871 138.229 60.5156 138.098 62.5371ZM160.144 64.8809H163.63L165.432 67.2539C166.647 65.9941 167.365 64.0312 167.351 61.3945C167.365 56.5459 164.934 53.9238 161.462 53.9238C158.005 53.9238 155.559 56.5459 155.573 61.3945C155.559 66.2432 158.005 68.8652 161.462 68.8652C162.019 68.8652 162.546 68.792 163.044 68.6602L160.144 64.8809ZM151.735 61.3945C151.721 54.5391 155.881 50.4961 161.462 50.4961C167.014 50.4961 171.203 54.5391 171.188 61.3945C171.203 65.2471 169.885 68.2061 167.746 70.0664L170.69 73.8457H166.97L165.197 71.6045C164.055 72.0586 162.795 72.293 161.462 72.293C155.881 72.293 151.721 68.2354 151.735 61.3945ZM174.616 72V50.7891H182.585C187.448 50.7891 190.041 53.5137 190.056 57.5566C190.041 60.4424 188.723 62.5811 186.232 63.5918L190.817 72H186.569L182.409 64.2363H178.425V72H174.616ZM178.425 61.043H181.999C184.87 61.0576 186.159 59.8271 186.159 57.5566C186.159 55.3008 184.87 53.9824 181.999 53.9824H178.425V61.043Z" fill="#2891FB"/>
</svg>
