<svg width="202" height="146" viewBox="0 0 202 146" fill="none" xmlns="http://www.w3.org/2000/svg">
<path d="M24.0234 16L21.0156 5.39453H23.5547L25.4297 12.8555H25.5273L27.4219 5.39453H29.9414L31.8555 12.8164H31.9531L33.8086 5.39453H36.3477L33.3398 16H30.7422L28.75 8.8125H28.6133L26.6211 16H24.0234ZM40.4297 9.78906V16H37.9297V1.85938H40.3711V7.19141H40.5078C40.9863 5.99023 42.0215 5.25781 43.6523 5.25781C45.8496 5.25781 47.3047 6.68359 47.3047 9.24219V16H44.8242V9.63281C44.8145 8.1875 44.043 7.35742 42.7344 7.36719C41.3867 7.35742 40.4297 8.24609 40.4297 9.78906ZM54.375 16.2148C51.1816 16.2148 49.2188 14.0859 49.2188 10.7656C49.2188 7.48438 51.2109 5.25781 54.2383 5.25781C56.8359 5.25781 59.082 6.88867 59.082 10.6094V11.3906H51.6797C51.7188 13.1973 52.7832 14.2715 54.3945 14.2617C55.4883 14.2715 56.2207 13.8027 56.543 13.168H58.9844C58.5352 15.0039 56.8359 16.2148 54.375 16.2148ZM51.6895 9.69141H56.6992C56.6895 8.24609 55.7129 7.19141 54.2773 7.19141C52.7832 7.19141 51.7773 8.34375 51.6895 9.69141ZM61.0156 16V5.39453H63.4375V7.15234H63.5547C63.9355 5.93164 64.9512 5.23828 66.1719 5.23828C66.4453 5.23828 66.8359 5.26758 67.0703 5.29688V7.60156C66.8457 7.52344 66.3281 7.45508 65.918 7.44531C64.5312 7.45508 63.5156 8.41211 63.5156 9.75V16H61.0156ZM72.9102 16.2148C69.7168 16.2148 67.7539 14.0859 67.7539 10.7656C67.7539 7.48438 69.7461 5.25781 72.7734 5.25781C75.3711 5.25781 77.6172 6.88867 77.6172 10.6094V11.3906H70.2148C70.2539 13.1973 71.3184 14.2715 72.9297 14.2617C74.0234 14.2715 74.7559 13.8027 75.0781 13.168H77.5195C77.0703 15.0039 75.3711 16.2148 72.9102 16.2148ZM70.2246 9.69141H75.2344C75.2246 8.24609 74.248 7.19141 72.8125 7.19141C71.3184 7.19141 70.3125 8.34375 70.2246 9.69141ZM84.9219 11.2539H87.2461L88.4473 12.8359C89.2578 11.9961 89.7363 10.6875 89.7266 8.92969C89.7363 5.69727 88.1152 3.94922 85.8008 3.94922C83.4961 3.94922 81.8652 5.69727 81.875 8.92969C81.8652 12.1621 83.4961 13.9102 85.8008 13.9102C86.1719 13.9102 86.5234 13.8613 86.8555 13.7734L84.9219 11.2539ZM79.3164 8.92969C79.3066 4.35938 82.0801 1.66406 85.8008 1.66406C89.502 1.66406 92.2949 4.35938 92.2852 8.92969C92.2949 11.498 91.416 13.4707 89.9902 14.7109L91.9531 17.2305H89.4727L88.291 15.7363C87.5293 16.0391 86.6895 16.1953 85.8008 16.1953C82.0801 16.1953 79.3066 13.4902 79.3164 8.92969ZM94.5703 16V1.85938H99.8828C103.125 1.85938 104.854 3.67578 104.863 6.37109C104.854 8.29492 103.975 9.7207 102.314 10.3945L105.371 16H102.539L99.7656 10.8242H97.1094V16H94.5703ZM97.1094 8.69531H99.4922C101.406 8.70508 102.266 7.88477 102.266 6.37109C102.266 4.86719 101.406 3.98828 99.4922 3.98828H97.1094V8.69531ZM122.422 9.20312V10.9414H106.328V9.20312H122.422ZM107.988 4.22266C107.988 1.98633 110.498 0.638672 114.355 0.648438C118.203 0.638672 120.713 1.98633 120.723 4.22266C120.713 6.46875 118.203 7.83594 114.355 7.83594C110.498 7.83594 107.988 6.46875 107.988 4.22266ZM108.32 17.3867V12.25H110.488V15.6289H120.605V17.3867H108.32ZM110.254 4.22266C110.234 5.42383 111.787 6.06836 114.355 6.05859C116.934 6.06836 118.477 5.42383 118.477 4.22266C118.477 3.06055 116.934 2.38672 114.355 2.38672C111.787 2.38672 110.234 3.06055 110.254 4.22266ZM144.473 9.22266V10.9609H137.656V14.0078H135.508V10.9609H128.34V9.22266H144.473ZM130.293 17.3867V12.5234H132.441V15.6289H142.695V17.3867H130.293ZM130.449 7.83594V0.648438H132.598V2.64062H140.215V0.648438H142.363V7.83594H130.449ZM132.598 6.11719H140.215V4.26172H132.598V6.11719ZM160.312 0.0820312V9.08594H158.164V0.0820312H160.312ZM145.625 7.36719C148.486 6.45898 149.99 4.19336 149.98 1.87891V0.511719H152.227V1.87891C152.217 4.125 153.711 6.22461 156.504 7.07422L155.449 8.75391C153.398 8.11914 151.934 6.81055 151.133 5.13086C150.332 6.95703 148.828 8.39258 146.719 9.06641L145.625 7.36719ZM148.633 11.5859V9.90625H160.352V14.4961H150.801V15.8633H160.879V17.582H148.672V12.875H158.184V11.5859H148.633ZM173.203 5.62891V7.36719H169.922V9.36914C171.396 9.31055 172.861 9.21289 174.238 9.06641L174.395 10.6289C170.645 11.1465 166.592 11.2441 163.301 11.2539L163.008 9.51562C164.463 9.50586 166.074 9.49609 167.734 9.44727V7.36719H164.531V1.17578H173.066V2.93359H166.719V5.62891H173.203ZM165.82 17.3867V12.3672H168.008V15.6289H178.164V17.3867H165.82ZM175.469 13.3438V0.0820312H177.656V13.3438H175.469ZM34.2773 39.25V40.9688H27.2852V42.2969H32.2656V46.6328H22.2266V47.9219H32.7539V49.582H20.0977V45.0703H30.1367V43.9375H20.0781V42.2969H25.1172V40.9688H18.1836V39.25H34.2773ZM20.2148 38.1367V32.6289H32.207V38.1367H20.2148ZM22.3438 36.4375H30.0391V34.3281H22.3438V36.4375ZM50.2539 32.1016V45.0508H48.0859V39.1133H44.6875V37.3164H48.0859V32.1016H50.2539ZM35.7031 41.457C39.502 40.2559 42.0117 38 42.4316 35.207H36.6211V33.4297H44.8047C44.8047 38.0879 41.7285 41.5645 36.6211 43.1953L35.7031 41.457ZM38.75 49.3867V43.7422H40.957V47.6289H50.7031V49.3867H38.75ZM67.9883 32.082V49.7383H65.8984V32.082H67.9883ZM52.9297 39.7188C52.9297 35.832 54.4336 33.4199 56.7383 33.4297C58.877 33.4199 60.332 35.4219 60.5859 38.7227H62.2852V32.3945H64.3555V48.8789H62.2852V40.4805H60.6055C60.4004 43.9277 58.9258 46.0371 56.7383 46.0273C54.4336 46.0371 52.9297 43.6152 52.9297 39.7188ZM54.9414 39.7188C54.9316 42.4824 55.6152 43.9668 56.7383 43.957C57.9102 43.9668 58.6035 42.4824 58.6133 39.7188C58.6035 36.9648 57.9102 35.4707 56.7383 35.4805C55.6152 35.4707 54.9316 36.9648 54.9414 39.7188ZM90.8984 42.3555V44.0742H83.8672V49.7383H81.7188V44.0742H74.7656V42.3555H90.8984ZM76.7188 40.5195V32.7852H78.8672V34.9531H86.7578V32.7852H88.9453V40.5195H76.7188ZM78.8672 38.7617H86.7578V36.6719H78.8672V38.7617ZM98.418 35.9102C98.4082 37.8438 99.8438 39.7773 102.637 40.5391L101.621 42.2773C99.5996 41.6914 98.1543 40.4707 97.3535 38.9277C96.582 40.6172 95.1172 41.9453 93.0469 42.5703L91.9922 40.8711C94.7754 40.0703 96.25 38.0195 96.25 35.9102V35.7734H92.5586V34.0547H96.25V32.0234H98.4375V34.0547H102.109V35.7734H98.418V35.9102ZM94.2383 45.4219V43.6836H105.996V49.7578H103.828V45.4219H94.2383ZM103.828 42.8828V32.082H105.996V36.5547H108.457V38.3906H105.996V42.8828H103.828ZM119.863 39.4062V41.1641H116.289V44.2402C117.832 44.1816 119.375 44.0742 120.84 43.918L121.016 45.5195C117.129 46.0957 113.037 46.1348 109.707 46.1445L109.434 44.3477C110.889 44.3574 112.48 44.3477 114.121 44.3184V41.1641H110.664V33.7031H119.785V35.4219H112.812V39.4062H119.863ZM121.895 49.7578V32.082H124.062V49.7578H121.895ZM131.465 33.3711C133.848 33.3711 135.615 35.3633 135.928 38.5859H139.297V32.082H141.445V49.7578H139.297V40.3438H135.947C135.713 43.752 133.916 45.8516 131.465 45.8516C128.809 45.8516 126.924 43.4395 126.934 39.6016C126.924 35.793 128.809 33.3711 131.465 33.3711ZM129.023 39.6016C129.014 42.3164 130.01 43.8887 131.465 43.8984C132.93 43.8887 133.916 42.3164 133.926 39.6016C133.916 36.9062 132.93 35.3242 131.465 35.3242C130.01 35.3242 129.014 36.9062 129.023 39.6016ZM154.941 43.5664C154.941 45.041 155.615 46.5742 157.129 47.5508C158.672 46.5059 159.385 44.9043 159.395 43.5664V42.8438H161.523V43.5664C161.514 45.4121 162.607 47.1504 164.922 47.8828L163.867 49.4648C162.148 48.8887 161.016 47.7656 160.4 46.3496C159.824 47.7461 158.789 48.9766 157.188 49.6211C155.508 49.0059 154.453 47.8145 153.896 46.418C153.262 47.7754 152.139 48.8789 150.508 49.4648L149.434 47.8828C151.719 47.082 152.822 45.2852 152.832 43.5664V42.8438H154.941V43.5664ZM148.984 37.2383C148.984 34.7578 151.016 33.0391 153.75 33.0391C156.475 33.0391 158.506 34.7578 158.496 37.2383C158.506 39.6895 156.475 41.4277 153.75 41.418C151.016 41.4277 148.984 39.6895 148.984 37.2383ZM151.113 37.2383C151.104 38.6836 152.207 39.6113 153.75 39.6211C155.264 39.6113 156.367 38.6836 156.367 37.2383C156.367 35.793 155.264 34.8652 153.75 34.875C152.207 34.8652 151.104 35.793 151.113 37.2383ZM161.191 42.1016V32.1016H163.379V42.1016H161.191ZM180.254 37.082V38.8008H168.027V32.7266H170.176V37.082H180.254ZM165.938 42.5703V40.8516H182.07V42.5703H165.938ZM167.871 49.3281V44.1328H170.039V47.5703H180.371V49.3281H167.871ZM47.4121 75.2539H49.7363L50.9375 76.8359C51.748 75.9961 52.2266 74.6875 52.2168 72.9297C52.2266 69.6973 50.6055 67.9492 48.291 67.9492C45.9863 67.9492 44.3555 69.6973 44.3652 72.9297C44.3555 76.1621 45.9863 77.9102 48.291 77.9102C48.6621 77.9102 49.0137 77.8613 49.3457 77.7734L47.4121 75.2539ZM41.8066 72.9297C41.7969 68.3594 44.5703 65.6641 48.291 65.6641C51.9922 65.6641 54.7852 68.3594 54.7754 72.9297C54.7852 75.498 53.9062 77.4707 52.4805 78.7109L54.4434 81.2305H51.9629L50.7812 79.7363C50.0195 80.0391 49.1797 80.1953 48.291 80.1953C44.5703 80.1953 41.7969 77.4902 41.8066 72.9297ZM57.0605 80V65.8594H62.373C65.6152 65.8594 67.3438 67.6758 67.3535 70.3711C67.3438 72.2949 66.4648 73.7207 64.8047 74.3945L67.8613 80H65.0293L62.2559 74.8242H59.5996V80H57.0605ZM59.5996 72.6953H61.9824C63.8965 72.7051 64.7559 71.8848 64.7559 70.3711C64.7559 68.8672 63.8965 67.9883 61.9824 67.9883H59.5996V72.6953ZM83.1738 65.6445V67.2461C83.1641 69.3848 83.1934 71.8555 82.3926 75.5859L80.2637 75.3711C80.5762 73.9453 80.7617 72.6855 80.8691 71.5625L70.459 72.1484L70.1465 70.293L80.9961 69.9023C81.0352 68.9844 81.0449 68.1641 81.0449 67.4023H70.6934V65.6445H83.1738ZM68.8184 79.5703V77.7734H74.7559V73.418H76.9043V77.7734H84.9121V79.5703H68.8184ZM100.439 72.3633V74.1016H88.0566V65.625H100.303V67.3828H90.2051V72.3633H100.439ZM86.1035 79.4922V77.6953H102.236V79.4922H86.1035ZM119.502 72.0898V73.7305H103.369V72.0898H119.502ZM105.244 76.3086V74.7852H117.549V78.8086H107.432V80.0391H118.076V81.543H105.264V77.4023H115.4V76.3086H105.244ZM105.361 65.9766V64.4727H117.51V68.457H107.568V69.6094H117.822V71.0938H105.42V67.0508H115.342V65.9766H105.361ZM141.514 73.2617V74.9805H125.381V73.2617H132.354V71.9531H127.451V64.5508H139.58V66.2305H129.619V67.4414H139.15V69.043H129.619V70.293H139.717V71.9531H134.521V73.2617H141.514ZM127.295 78.8281C127.295 76.9824 129.512 75.9473 133.447 75.957C137.324 75.9473 139.551 76.9824 139.561 78.8281C139.551 80.7227 137.324 81.7188 133.447 81.7188C129.512 81.7188 127.295 80.7227 127.295 78.8281ZM129.463 78.8281C129.463 79.6875 130.791 80.0977 133.447 80.0977C136.055 80.0977 137.373 79.6875 137.393 78.8281C137.373 77.9883 136.055 77.5781 133.447 77.5781C130.791 77.5781 129.463 77.9883 129.463 78.8281ZM151.318 66.8945V68.6328H142.666V66.8945H145.947V64.5898H148.096V66.8945H151.318ZM143.174 73.6719C143.154 71.2695 144.785 69.5605 147.021 69.5703C149.268 69.5605 150.869 71.2695 150.869 73.6719C150.869 76.123 149.268 77.832 147.021 77.832C144.785 77.832 143.154 76.123 143.174 73.6719ZM145.088 73.6719C145.078 75.0977 145.879 75.9863 147.021 75.9766C148.154 75.9863 148.955 75.0977 148.955 73.6719C148.955 72.2852 148.154 71.3672 147.021 71.3672C145.879 71.3672 145.078 72.2852 145.088 73.6719ZM152.061 80.9375V64.4531H154.092V71.3477H155.811V64.082H157.881V81.7383H155.811V73.1055H154.092V80.9375H152.061ZM17.0117 105.223V106.961H10.1953V110.008H8.04688V106.961H0.878906V105.223H17.0117ZM2.83203 113.387V108.523H4.98047V111.629H15.2344V113.387H2.83203ZM2.98828 103.836V96.6484H5.13672V98.6406H12.7539V96.6484H14.9023V103.836H2.98828ZM5.13672 102.117H12.7539V100.262H5.13672V102.117ZM32.8516 96.082V105.086H30.7031V96.082H32.8516ZM18.1641 103.367C21.0254 102.459 22.5293 100.193 22.5195 97.8789V96.5117H24.7656V97.8789C24.7559 100.125 26.25 102.225 29.043 103.074L27.9883 104.754C25.9375 104.119 24.4727 102.811 23.6719 101.131C22.8711 102.957 21.3672 104.393 19.2578 105.066L18.1641 103.367ZM21.1719 107.586V105.906H32.8906V110.496H23.3398V111.863H33.418V113.582H21.2109V108.875H30.7227V107.586H21.1719ZM41.7969 101.102C41.7871 103.826 43.4277 106.932 46.2109 108.23L45 109.949C43.0078 109.012 41.5332 107.117 40.7422 104.91C39.9414 107.332 38.3984 109.402 36.3672 110.379L35.0977 108.68C37.9102 107.342 39.6191 104.041 39.6289 101.102V99.6172H35.7812V97.8203H45.4883V99.6172H41.7969V101.102ZM47.1289 113.738V96.082H49.2969V102.957H52.0117V104.773H49.2969V113.738H47.1289ZM58.0273 97.1758C60.7422 97.1758 62.8125 98.9238 62.832 101.434C62.8125 103.592 61.2891 105.184 59.1406 105.584V108.191C60.6152 108.113 62.0801 108.006 63.457 107.82L63.6133 109.441C59.9121 110.105 55.8789 110.125 52.8516 110.086L52.5391 108.309C53.8672 108.309 55.3906 108.299 56.9727 108.26V105.604C54.7559 105.213 53.2227 103.611 53.2422 101.434C53.2227 98.9238 55.2539 97.1758 58.0273 97.1758ZM55.3516 101.434C55.3418 102.908 56.4844 103.855 58.0273 103.836C59.541 103.855 60.6738 102.908 60.6836 101.434C60.6738 99.9492 59.541 99.0312 58.0273 99.0117C56.4844 99.0312 55.3418 99.9492 55.3516 101.434ZM64.4727 113.738V96.082H66.6406V103.133H69.1992V104.969H66.6406V113.738H64.4727ZM90.8984 105.223V106.961H84.082V110.008H81.9336V106.961H74.7656V105.223H90.8984ZM76.7188 113.387V108.523H78.8672V111.629H89.1211V113.387H76.7188ZM76.875 103.836V96.6484H79.0234V98.6406H86.6406V96.6484H88.7891V103.836H76.875ZM79.0234 102.117H86.6406V100.262H79.0234V102.117ZM106.738 96.082V105.086H104.59V96.082H106.738ZM92.0508 103.367C94.9121 102.459 96.416 100.193 96.4062 97.8789V96.5117H98.6523V97.8789C98.6426 100.125 100.137 102.225 102.93 103.074L101.875 104.754C99.8242 104.119 98.3594 102.811 97.5586 101.131C96.7578 102.957 95.2539 104.393 93.1445 105.066L92.0508 103.367ZM95.0586 107.586V105.906H106.777V110.496H97.2266V111.863H107.305V113.582H95.0977V108.875H104.609V107.586H95.0586ZM125.449 103.25V104.969H118.457V106.297H123.438V110.633H113.398V111.922H123.926V113.582H111.27V109.07H121.309V107.938H111.25V106.297H116.289V104.969H109.355V103.25H125.449ZM111.387 102.137V96.6289H123.379V102.137H111.387ZM113.516 100.438H121.211V98.3281H113.516V100.438ZM135.469 106.668V108.348H143.242V106.668H145.41V113.523H133.32V106.668H135.469ZM131.387 105.672V103.895H147.48V105.672H131.387ZM132.207 101.258C135.898 100.799 138.311 98.9043 138.32 96.9414V96.2773H140.547V96.9414C140.547 98.8457 142.969 100.828 146.621 101.258L145.859 102.977C142.9 102.576 140.566 101.258 139.434 99.4707C138.291 101.268 135.947 102.576 133.008 102.977L132.207 101.258ZM135.469 111.805H143.242V110.008H135.469V111.805ZM164.785 104.5V106.258H148.672V104.5H164.785ZM150.449 109.715V107.977H162.832V113.777H160.684V109.715H150.449ZM150.645 102.918V96.707H162.832V98.4453H152.812V101.18H162.988V102.918H150.645ZM172.285 101.102C172.275 103.826 173.916 106.932 176.699 108.23L175.488 109.949C173.496 109.012 172.021 107.117 171.23 104.91C170.43 107.332 168.887 109.402 166.855 110.379L165.586 108.68C168.398 107.342 170.107 104.041 170.117 101.102V99.6172H166.27V97.8203H175.977V99.6172H172.285V101.102ZM177.617 113.738V96.082H179.785V102.957H182.5V104.773H179.785V113.738H177.617ZM199.355 104.09V105.73H183.223V104.09H199.355ZM185.098 108.309V106.785H197.402V110.809H187.285V112.039H197.93V113.543H185.117V109.402H195.254V108.309H185.098ZM185.215 97.9766V96.4727H197.363V100.457H187.422V101.609H197.676V103.094H185.273V99.0508H195.195V97.9766H185.215ZM19.0137 136.188V137.945H12.0215V139.43C15.1758 139.635 17.0508 140.729 17.0605 142.555C17.0508 144.586 14.7461 145.719 10.9473 145.719C7.08984 145.719 4.79492 144.586 4.79492 142.555C4.79492 140.729 6.66992 139.625 9.87305 139.42V137.945H2.91992V136.188H19.0137ZM3.70117 133.668C6.94336 133.365 9.0625 132.047 9.42383 130.602H4.38477V128.863H17.5684V130.602H12.4805C12.832 132.057 14.9316 133.365 18.252 133.668L17.4902 135.387C14.2773 135.055 11.9043 133.775 10.9473 131.988C9.99023 133.775 7.64648 135.055 4.44336 135.387L3.70117 133.668ZM7.00195 142.555C6.99219 143.531 8.37891 144.068 10.9473 144.059C13.4766 144.068 14.873 143.531 14.8926 142.555C14.873 141.578 13.4766 141.061 10.9473 141.051C8.37891 141.061 6.99219 141.578 7.00195 142.555ZM35.3613 128.082V145.738H33.2715V136.676H31.377V144.918H29.3457V128.551H31.377V134.918H33.2715V128.082H35.3613ZM20.0684 140.543C23.8281 138.375 25.4199 135.582 25.7324 132.047H20.8887V130.309H27.8418C27.8418 135.084 26.3379 139.186 21.3184 142.047L20.0684 140.543ZM46.1035 130.895V132.633H37.4512V130.895H40.7324V128.59H42.8809V130.895H46.1035ZM37.959 137.672C37.9395 135.27 39.5703 133.561 41.8066 133.57C44.0527 133.561 45.6543 135.27 45.6543 137.672C45.6543 140.123 44.0527 141.832 41.8066 141.832C39.5703 141.832 37.9395 140.123 37.959 137.672ZM39.873 137.672C39.8633 139.098 40.6641 139.986 41.8066 139.977C42.9395 139.986 43.7402 139.098 43.7402 137.672C43.7402 136.285 42.9395 135.367 41.8066 135.367C40.6641 135.367 39.8633 136.285 39.873 137.672ZM46.8457 144.938V128.453H48.877V135.348H50.5957V128.082H52.666V145.738H50.5957V137.105H48.877V144.938H46.8457ZM70.8691 137.926V139.684H63.8574V145.719H61.709V139.684H54.7754V137.926H70.8691ZM55.6152 135.035C59.082 134.596 61.4062 132.73 61.5625 130.797H56.2598V129.078H69.3848V130.797H64.082C64.2285 132.73 66.5332 134.596 70.0293 135.035L69.248 136.734C66.2402 136.305 63.8965 134.928 62.8223 133.023C61.7383 134.928 59.4141 136.305 56.4355 136.734L55.6152 135.035ZM86.3574 133.082V134.801H74.1309V128.727H76.2793V133.082H86.3574ZM72.041 138.57V136.852H88.1738V138.57H72.041ZM73.9746 145.328V140.133H76.1426V143.57H86.4746V145.328H73.9746ZM108.701 128.59V130.23H106.279V132.906H108.604V134.547H95.6348V132.906H97.959V130.23H95.5371V128.59H108.701ZM94.0918 137.379V135.66H110.186V137.379H94.0918ZM95.9863 140.152V138.57H108.174V142.77H98.1348V143.961H108.662V145.582H96.0059V141.266H106.045V140.152H95.9863ZM100.127 132.906H104.092V130.23H100.127V132.906ZM126.475 128.102V140.016H124.404V134.254H122.568V138.531H120.537V128.434H122.568V132.496H124.404V128.102H126.475ZM112.1 131.129V129.371H118.818V134.586H114.229V136.627C116.289 136.607 117.842 136.5 119.639 136.148L119.834 137.848C117.734 138.277 115.957 138.336 113.33 138.336H112.119V133.004H116.729V131.129H112.1ZM113.525 143.961C117.07 143.492 119.326 141.588 119.346 139.586V139.215H121.514V139.586C121.504 141.588 123.76 143.492 127.334 143.961L126.455 145.641C123.691 145.23 121.514 143.98 120.43 142.242C119.336 143.98 117.158 145.23 114.404 145.641L113.525 143.961ZM144.756 136.754V138.473H128.662V136.754H135.596V135.133H130.205V133.375H132.529V130.348H130.107V128.609H143.271V130.348H140.85V133.375H143.174V135.133H137.764V136.754H144.756ZM130.557 145.523V139.859H142.803V145.523H130.557ZM132.705 143.766H140.693V141.559H132.705V143.766ZM134.697 133.375H138.662V130.348H134.697V133.375ZM160.654 128.082V137.555H158.467V128.082H160.654ZM146.26 133.004C146.26 130.553 148.291 128.854 151.025 128.863C153.75 128.854 155.781 130.553 155.771 133.004C155.781 135.416 153.75 137.115 151.025 137.105C148.291 137.115 146.26 135.416 146.26 133.004ZM148.389 133.004C148.379 134.42 149.482 135.318 151.025 135.328C152.539 135.318 153.643 134.42 153.643 133.004C153.643 131.588 152.539 130.67 151.025 130.68C149.482 130.67 148.379 131.588 148.389 133.004ZM148.975 145.523V138.375H151.123V140.191H158.486V138.375H160.654V145.523H148.975ZM151.123 143.766H158.486V141.891H151.123V143.766ZM177.959 128.082V145.738H175.811V128.082H177.959ZM164.248 141.305V129.801H166.396V139.449C168.867 139.41 171.504 139.195 174.229 138.648L174.502 140.465C171.396 141.109 168.516 141.314 165.771 141.305H164.248ZM194.346 128.082V134.781H197.061V136.559H194.346V145.758H192.178V128.082H194.346ZM181.24 141.441V129.762H189.502V131.52H183.408V139.625C186.152 139.615 188.33 139.479 190.752 139.059L191.006 140.895C188.262 141.363 185.889 141.441 182.705 141.441H181.24ZM199.951 144.156C199.111 144.156 198.418 143.473 198.428 142.633C198.418 141.812 199.111 141.139 199.951 141.129C200.762 141.139 201.455 141.812 201.455 142.633C201.455 143.473 200.762 144.156 199.951 144.156Z" fill="#303440"/>
</svg>
