<svg width="174" height="169" viewBox="0 0 174 169" fill="none" xmlns="http://www.w3.org/2000/svg">
<path d="M7.13171 36.7083V5.53287C7.13171 5.23855 7.37031 4.99995 7.66463 4.99995H38.3072" stroke="#2891FB" stroke-width="8.99213" stroke-linecap="round"/>
<path d="M168.072 36.7083V5.53287C168.072 5.23855 167.833 4.99995 167.539 4.99995H136.896" stroke="#2891FB" stroke-width="8.99213" stroke-linecap="round"/>
<rect x="26.5831" y="23.3855" width="36.771" height="36.771" stroke="#191F28" stroke-width="5.32913"/>
<rect x="26.5831" y="107.586" width="36.771" height="36.771" stroke="#191F28" stroke-width="5.32913"/>
<rect x="111.316" y="23.3855" width="36.771" height="36.771" stroke="#191F28" stroke-width="5.32913"/>
<rect x="36.1755" y="32.9779" width="17.5861" height="17.5861" fill="#191F28"/>
<rect x="36.1755" y="117.178" width="17.5861" height="17.5861" fill="#191F28"/>
<rect x="120.909" y="32.9779" width="17.5861" height="17.5861" fill="#191F28"/>
<rect x="72.4137" y="27.1159" width="11.7241" height="5.86205" fill="#191F28"/>
<rect x="90.5325" y="51.097" width="5.86205" height="5.86205" fill="#191F28"/>
<rect x="96.3946" y="56.959" width="5.86205" height="5.86205" fill="#191F28"/>
<rect x="102.79" y="105.454" width="5.86205" height="5.86205" fill="#191F28"/>
<rect x="126.771" y="99.0592" width="5.86205" height="5.86205" fill="#191F28"/>
<rect x="139.028" y="117.178" width="5.86205" height="5.86205" fill="#191F28"/>
<rect x="126.771" y="123.573" width="5.86205" height="5.86205" fill="#191F28"/>
<rect x="120.909" y="141.159" width="5.86205" height="5.86205" fill="#191F28"/>
<rect x="138.495" y="141.159" width="5.86205" height="5.86205" fill="#191F28"/>
<rect x="132.633" y="129.435" width="5.86205" height="11.7241" fill="#191F28"/>
<rect x="144.357" y="93.1971" width="5.86205" height="5.86205" fill="#191F28"/>
<rect x="102.79" y="117.178" width="5.86205" height="5.86205" fill="#191F28"/>
<rect x="96.3946" y="128.902" width="5.86205" height="18.652" fill="#191F28"/>
<rect x="90.5325" y="135.297" width="23.9811" height="5.86205" fill="#191F28"/>
<rect x="115.047" y="93.1971" width="5.86205" height="11.7241" fill="#191F28"/>
<rect x="120.909" y="105.454" width="5.86205" height="17.5861" fill="#191F28"/>
<rect x="84.6707" y="56.959" width="5.86205" height="5.86205" fill="#191F28"/>
<rect x="78.2755" y="62.8211" width="5.86205" height="5.86205" fill="#191F28"/>
<rect x="90.5325" y="69.216" width="5.86205" height="5.86205" fill="#191F28"/>
<rect x="126.771" y="69.216" width="5.86205" height="11.7241" fill="#191F28"/>
<rect x="126.771" y="86.2693" width="11.7241" height="6.92788" fill="#191F28"/>
<rect x="133.166" y="105.454" width="11.7241" height="6.92788" fill="#191F28"/>
<rect x="96.3946" y="92.6642" width="5.86205" height="12.257" fill="#191F28"/>
<rect x="102.257" y="69.216" width="5.86205" height="5.86205" fill="#191F28"/>
<rect x="115.047" y="69.216" width="5.86205" height="5.86205" fill="#191F28"/>
<rect x="132.633" y="75.0781" width="5.86205" height="5.86205" fill="#191F28"/>
<rect x="138.495" y="69.216" width="5.86205" height="5.86205" fill="#191F28"/>
<rect x="144.357" y="75.0781" width="5.86205" height="5.86205" fill="#191F28"/>
<rect x="60.1564" y="92.6642" width="5.86205" height="5.86205" fill="#191F28"/>
<rect x="90.5325" y="105.454" width="5.86205" height="5.86205" fill="#191F28"/>
<rect x="78.8086" y="111.316" width="5.86205" height="5.86205" fill="#191F28"/>
<rect x="48.4325" y="92.6642" width="5.86205" height="5.86205" fill="#191F28"/>
<rect x="30.3134" y="92.6642" width="5.86205" height="5.86205" fill="#191F28"/>
<rect x="24.4514" y="92.6642" width="5.86205" height="5.86205" fill="#191F28"/>
<rect x="84.1376" y="32.9779" width="12.257" height="5.86205" fill="#191F28"/>
<rect x="78.2755" y="75.0781" width="36.771" height="5.86205" fill="#191F28"/>
<rect x="115.047" y="111.316" width="29.8432" height="5.86205" fill="#191F28"/>
<rect x="120.909" y="135.297" width="17.5861" height="5.86205" fill="#191F28"/>
<rect x="84.6707" y="86.8022" width="30.3761" height="5.86205" fill="#191F28"/>
<rect x="72.4137" y="117.178" width="23.9811" height="5.86205" fill="#191F28"/>
<rect x="72.4137" y="123.04" width="23.9811" height="5.86205" fill="#191F28"/>
<rect x="96.3946" y="123.04" width="23.9811" height="5.86205" fill="#191F28"/>
<rect x="108.652" y="128.902" width="11.7241" height="6.39496" fill="#191F28"/>
<rect x="72.4137" y="38.84" width="11.7241" height="5.86205" fill="#191F28"/>
<rect x="66.5516" y="86.8022" width="11.7241" height="5.86205" fill="#191F28"/>
<rect x="74.0123" y="141.159" width="16.5203" height="5.86205" fill="#191F28"/>
<rect x="90.5325" y="20.7209" width="11.7241" height="5.86205" fill="#191F28"/>
<rect x="23.9185" y="69.216" width="30.3761" height="5.86205" fill="#191F28"/>
<rect x="60.1564" y="69.216" width="18.1191" height="5.86205" fill="#191F28"/>
<rect x="30.3134" y="86.8022" width="23.9811" height="5.86205" fill="#191F28"/>
<rect x="96.3946" y="23.3855" width="5.86205" height="27.7115" fill="#191F28"/>
<rect x="78.2755" y="41.5045" width="5.86205" height="9.59244" fill="#191F28"/>
<rect x="72.4137" y="51.097" width="5.86205" height="11.7241" fill="#191F28"/>
<rect x="36.1755" y="74.0123" width="5.86205" height="12.7899" fill="#191F28"/>
<rect x="54.2946" y="75.0781" width="5.86205" height="11.7241" fill="#191F28"/>
<rect x="72.4137" y="99.0592" width="5.86205" height="11.7241" fill="#191F28"/>
<rect x="84.6707" y="105.454" width="5.86205" height="11.7241" fill="#191F28"/>
<rect x="72.4137" y="128.902" width="5.86205" height="18.1191" fill="#191F28"/>
<rect x="66.5516" y="75.0781" width="5.86205" height="11.7241" fill="#191F28"/>
<rect x="5" y="84.2809" width="164.821" height="79.281" fill="white" fill-opacity="0.3"/>
<path d="M5 83.8712H169.404" stroke="#2891FB" stroke-width="8.99213" stroke-linecap="round"/>
<path d="M6.86517 132.1V163.542C6.86517 163.836 7.10377 164.075 7.39809 164.075H37.7742" stroke="#2891FB" stroke-width="8.99213" stroke-linecap="round"/>
<path d="M167.805 132.1V163.542C167.805 163.836 167.566 164.075 167.272 164.075H136.896" stroke="#2891FB" stroke-width="8.99213" stroke-linecap="round"/>
</svg>
