<svg width="251" height="137" viewBox="0 0 251 137" fill="none" xmlns="http://www.w3.org/2000/svg">
<path d="M20.0156 9.5V11.5625H11.625V13.1562H17.6016V18.3594H5.55469V19.9062H18.1875V21.8984H3V16.4844H15.0469V15.125H2.97656V13.1562H9.02344V11.5625H0.703125V9.5H20.0156ZM3.14062 8.16406V1.55469H17.5312V8.16406H3.14062ZM5.69531 6.125H14.9297V3.59375H5.69531V6.125ZM39.1875 0.921875V16.4609H36.5859V9.33594H32.5078V7.17969H36.5859V0.921875H39.1875ZM21.7266 12.1484C26.2852 10.707 29.2969 8 29.8008 4.64844H22.8281V2.51562H32.6484C32.6484 8.10547 28.957 12.2773 22.8281 14.2344L21.7266 12.1484ZM25.3828 21.6641V14.8906H28.0312V19.5547H39.7266V21.6641H25.3828ZM67.2188 11.8672V13.9531H59.0391V17.6094H56.4609V13.9531H47.8594V11.8672H67.2188ZM50.2031 21.6641V15.8281H52.7812V19.5547H65.0859V21.6641H50.2031ZM50.3906 10.2031V1.57812H52.9688V3.96875H62.1094V1.57812H64.6875V10.2031H50.3906ZM52.9688 8.14062H62.1094V5.91406H52.9688V8.14062ZM86.2266 0.898438V11.7031H83.6484V0.898438H86.2266ZM68.6016 9.64062C72.0352 8.55078 73.8398 5.83203 73.8281 3.05469V1.41406H76.5234V3.05469C76.5117 5.75 78.3047 8.26953 81.6562 9.28906L80.3906 11.3047C77.9297 10.543 76.1719 8.97266 75.2109 6.95703C74.25 9.14844 72.4453 10.8711 69.9141 11.6797L68.6016 9.64062ZM72.2109 14.7031V12.6875H86.2734V18.1953H74.8125V19.8359H86.9062V21.8984H72.2578V16.25H83.6719V14.7031H72.2109ZM107.648 0.898438V22.0859H105.141V0.898438H107.648ZM89.5781 10.0625C89.5781 5.39844 91.3828 2.50391 94.1484 2.51562C96.7148 2.50391 98.4609 4.90625 98.7656 8.86719H100.805V1.27344H103.289V21.0547H100.805V10.9766H98.7891C98.543 15.1133 96.7734 17.6445 94.1484 17.6328C91.3828 17.6445 89.5781 14.7383 89.5781 10.0625ZM91.9922 10.0625C91.9805 13.3789 92.8008 15.1602 94.1484 15.1484C95.5547 15.1602 96.3867 13.3789 96.3984 10.0625C96.3867 6.75781 95.5547 4.96484 94.1484 4.97656C92.8008 4.96484 91.9805 6.75781 91.9922 10.0625ZM134.039 0.898438V22.0859H131.555V11.2812H129.164V21.0078H126.773V1.29688H129.164V9.19531H131.555V0.898438H134.039ZM116.461 17.1406V3.40625H124.383V5.51562H119.086V14.9375C121.383 14.9141 123.281 14.7969 125.438 14.3984L125.625 16.5312C123.059 17.0469 120.844 17.1172 117.891 17.1406H116.461ZM154.172 0.898438V22.1094H151.547V0.898438H154.172ZM137.672 17.1172V2.63281H140.273V7.92969H145.406V2.63281H147.984V17.1172H137.672ZM140.273 14.9844H145.406V9.96875H140.273V14.9844ZM167.625 4.27344V6.35938H157.242V4.27344H161.18V1.50781H163.758V4.27344H167.625ZM157.852 12.4062C157.828 9.52344 159.785 7.47266 162.469 7.48438C165.164 7.47266 167.086 9.52344 167.086 12.4062C167.086 15.3477 165.164 17.3984 162.469 17.3984C159.785 17.3984 157.828 15.3477 157.852 12.4062ZM160.148 12.4062C160.137 14.1172 161.098 15.1836 162.469 15.1719C163.828 15.1836 164.789 14.1172 164.789 12.4062C164.789 10.7422 163.828 9.64062 162.469 9.64062C161.098 9.64062 160.137 10.7422 160.148 12.4062ZM168.516 21.125V1.34375H170.953V9.61719H173.016V0.898438H175.5V22.0859H173.016V11.7266H170.953V21.125H168.516ZM203.086 17.3516V19.4609H183.727V17.3516H192.023V12.4531H194.602V17.3516H203.086ZM184.289 10.8125C188.719 10.0977 191.895 6.92188 191.906 3.73438V2.1875H194.672V3.73438C194.672 6.93359 197.871 10.0977 202.336 10.8125L201.211 12.9688C197.637 12.2891 194.695 10.2383 193.289 7.46094C191.895 10.2266 188.988 12.3008 185.414 12.9688L184.289 10.8125ZM212.461 6.92188C212.461 10.3906 214.5 14.0469 217.922 15.4766L216.492 17.5391C213.984 16.4492 212.156 14.2344 211.184 11.5391C210.211 14.4453 208.348 16.8828 205.875 18.0547L204.375 16.0156C207.715 14.4688 209.801 10.5195 209.812 6.92188V5.14062H205.148V2.98438H217.102V5.14062H212.461V6.92188ZM219.469 22.0859V0.898438H222.094V22.0859H219.469ZM244.523 10.9297V13.0156H236.133V15.0547H242.18V21.8281H227.484V15.0547H233.555V13.0156H225.211V10.9297H244.523ZM226.945 3.61719V1.53125H242.742V3.61719H239.836V7.25H242.625V9.35938H227.062V7.25H229.852V3.61719H226.945ZM230.062 19.7188H239.648V17.0703H230.062V19.7188ZM232.453 7.25H237.211V3.61719H232.453V7.25ZM18.9844 38.8984V60.0859H16.4766V38.8984H18.9844ZM0.914062 48.0625C0.914062 43.3984 2.71875 40.5039 5.48438 40.5156C8.05078 40.5039 9.79688 42.9062 10.1016 46.8672H12.1406V39.2734H14.625V59.0547H12.1406V48.9766H10.125C9.87891 53.1133 8.10938 55.6445 5.48438 55.6328C2.71875 55.6445 0.914062 52.7383 0.914062 48.0625ZM3.32812 48.0625C3.31641 51.3789 4.13672 53.1602 5.48438 53.1484C6.89062 53.1602 7.72266 51.3789 7.73438 48.0625C7.72266 44.7578 6.89062 42.9648 5.48438 42.9766C4.13672 42.9648 3.31641 44.7578 3.32812 48.0625ZM34.3125 52.3047H37.1016L38.543 54.2031C39.5156 53.1953 40.0898 51.625 40.0781 49.5156C40.0898 45.6367 38.1445 43.5391 35.3672 43.5391C32.6016 43.5391 30.6445 45.6367 30.6562 49.5156C30.6445 53.3945 32.6016 55.4922 35.3672 55.4922C35.8125 55.4922 36.2344 55.4336 36.6328 55.3281L34.3125 52.3047ZM27.5859 49.5156C27.5742 44.0312 30.9023 40.7969 35.3672 40.7969C39.8086 40.7969 43.1602 44.0312 43.1484 49.5156C43.1602 52.5977 42.1055 54.9648 40.3945 56.4531L42.75 59.4766H39.7734L38.3555 57.6836C37.4414 58.0469 36.4336 58.2344 35.3672 58.2344C30.9023 58.2344 27.5742 54.9883 27.5859 49.5156ZM45.8906 58V41.0312H52.2656C56.1562 41.0312 58.2305 43.2109 58.2422 46.4453C58.2305 48.7539 57.1758 50.4648 55.1836 51.2734L58.8516 58H55.4531L52.125 51.7891H48.9375V58H45.8906ZM48.9375 49.2344H51.7969C54.0938 49.2461 55.125 48.2617 55.125 46.4453C55.125 44.6406 54.0938 43.5859 51.7969 43.5859H48.9375V49.2344ZM77.2266 40.7734V42.6953C77.2148 45.2617 77.25 48.2266 76.2891 52.7031L73.7344 52.4453C74.1094 50.7344 74.332 49.2227 74.4609 47.875L61.9688 48.5781L61.5938 46.3516L74.6133 45.8828C74.6602 44.7812 74.6719 43.7969 74.6719 42.8828H62.25V40.7734H77.2266ZM60 57.4844V55.3281H67.125V50.1016H69.7031V55.3281H79.3125V57.4844H60ZM97.9453 48.8359V50.9219H83.0859V40.75H97.7812V42.8594H85.6641V48.8359H97.9453ZM80.7422 57.3906V55.2344H100.102V57.3906H80.7422ZM120.82 48.5078V50.4766H101.461V48.5078H120.82ZM103.711 53.5703V51.7422H118.477V56.5703H106.336V58.0469H119.109V59.8516H103.734V54.8828H115.898V53.5703H103.711ZM103.852 41.1719V39.3672H118.43V44.1484H106.5V45.5312H118.805V47.3125H103.922V42.4609H115.828V41.1719H103.852ZM147.258 51.2266V53.2891H138.82V60.0859H136.242V53.2891H127.898V51.2266H147.258ZM130.242 49.0234V39.7422H132.82V42.3438H142.289V39.7422H144.914V49.0234H130.242ZM132.82 46.9141H142.289V44.4062H132.82V46.9141ZM156.281 43.4922C156.27 45.8125 157.992 48.1328 161.344 49.0469L160.125 51.1328C157.699 50.4297 155.965 48.9648 155.004 47.1133C154.078 49.1406 152.32 50.7344 149.836 51.4844L148.57 49.4453C151.91 48.4844 153.68 46.0234 153.68 43.4922V43.3281H149.25V41.2656H153.68V38.8281H156.305V41.2656H160.711V43.3281H156.281V43.4922ZM151.266 54.9062V52.8203H165.375V60.1094H162.773V54.9062H151.266ZM162.773 51.8594V38.8984H165.375V44.2656H168.328V46.4688H165.375V51.8594H162.773ZM179.742 42.2734V44.3594H169.359V42.2734H173.297V39.5078H175.875V42.2734H179.742ZM169.969 50.4062C169.945 47.5234 171.902 45.4727 174.586 45.4844C177.281 45.4727 179.203 47.5234 179.203 50.4062C179.203 53.3477 177.281 55.3984 174.586 55.3984C171.902 55.3984 169.945 53.3477 169.969 50.4062ZM172.266 50.4062C172.254 52.1172 173.215 53.1836 174.586 53.1719C175.945 53.1836 176.906 52.1172 176.906 50.4062C176.906 48.7422 175.945 47.6406 174.586 47.6406C173.215 47.6406 172.254 48.7422 172.266 50.4062ZM180.633 59.125V39.3438H183.07V47.6172H185.133V38.8984H187.617V60.0859H185.133V49.7266H183.07V59.125H180.633ZM215.156 47.5V49.5625H206.766V51.1562H212.742V56.3594H200.695V57.9062H213.328V59.8984H198.141V54.4844H210.188V53.125H198.117V51.1562H204.164V49.5625H195.844V47.5H215.156ZM198.281 46.1641V39.5547H212.672V46.1641H198.281ZM200.836 44.125H210.07V41.5938H200.836V44.125ZM234.328 38.9219V54.4609H231.727V47.3359H227.648V45.1797H231.727V38.9219H234.328ZM216.867 50.1484C221.426 48.707 224.438 46 224.941 42.6484H217.969V40.5156H227.789C227.789 46.1055 224.098 50.2773 217.969 52.2344L216.867 50.1484ZM220.523 59.6641V52.8906H223.172V57.5547H234.867V59.6641H220.523ZM20.0391 87.8672V89.9531H11.8594V93.6094H9.28125V89.9531H0.679688V87.8672H20.0391ZM3.02344 97.6641V91.8281H5.60156V95.5547H17.9062V97.6641H3.02344ZM3.21094 86.2031V77.5781H5.78906V79.9688H14.9297V77.5781H17.5078V86.2031H3.21094ZM5.78906 84.1406H14.9297V81.9141H5.78906V84.1406ZM39.0469 76.8984V87.7031H36.4688V76.8984H39.0469ZM21.4219 85.6406C24.8555 84.5508 26.6602 81.832 26.6484 79.0547V77.4141H29.3438V79.0547C29.332 81.75 31.125 84.2695 34.4766 85.2891L33.2109 87.3047C30.75 86.543 28.9922 84.9727 28.0312 82.957C27.0703 85.1484 25.2656 86.8711 22.7344 87.6797L21.4219 85.6406ZM25.0312 90.7031V88.6875H39.0938V94.1953H27.6328V95.8359H39.7266V97.8984H25.0781V92.25H36.4922V90.7031H25.0312ZM55.8984 81.9844C55.875 85.875 57.9258 89.7656 61.3594 91.2422L59.8125 93.3281C57.375 92.2031 55.5938 89.9648 54.6094 87.1992C53.6367 90.1758 51.8086 92.6133 49.2422 93.8203L47.6484 91.6406C51.1758 90.1172 53.2383 86.0742 53.25 81.9844V78.6094H55.8984V81.9844ZM62.8828 98.1094V76.8984H65.5078V98.1094H62.8828ZM93.6797 93.3984V95.5312H74.3203V93.3984H82.6641V89.2734H76.4531V78.3047H79.0547V81.7734H88.875V78.3047H91.4766V89.2734H85.2422V93.3984H93.6797ZM79.0547 87.1641H88.875V83.8594H79.0547V87.1641ZM111.656 76.8984V84.9375H114.914V87.0703H111.656V98.1094H109.055V76.8984H111.656ZM95.9297 92.9297V78.9141H105.844V81.0234H98.5312V90.75C101.824 90.7383 104.438 90.5742 107.344 90.0703L107.648 92.2734C104.355 92.8359 101.508 92.9297 97.6875 92.9297H95.9297ZM138.633 95.5547V97.6641H123.891V91.5469H126.492V95.5547H138.633ZM121.5 90.1172V88.0078H129.844V84.8203H132.422V88.0078H140.812V90.1172H121.5ZM122.602 84.0938C126.949 83.4492 129.797 80.9062 129.797 78.2344V77.4844H132.445V78.2344C132.445 81 135.234 83.4961 139.664 84.0938L138.633 86.1328C135.176 85.5586 132.445 83.9297 131.109 81.6094C129.773 83.918 127.066 85.582 123.633 86.1328L122.602 84.0938ZM148.078 90.0234V91.9688H157.289V90.0234H159.867V97.8281H145.5V90.0234H148.078ZM142.266 85.9453C146.238 85.9453 151.441 85.9453 156 85.3594L156.164 87.2109C154.441 87.5039 152.66 87.6914 150.914 87.8203V90.5391H148.312V87.9609C146.262 88.0312 144.316 88.0312 142.594 88.0312L142.266 85.9453ZM143.086 82.9453C146.344 82.2539 148.078 80.4023 148.078 78.3516V77.4375H150.75V78.3516C150.762 80.2852 152.508 82.0078 155.719 82.6406L154.594 84.6094C152.145 84.0938 150.387 82.9219 149.449 81.3164C148.535 83.0508 146.754 84.375 144.234 84.9375L143.086 82.9453ZM148.078 95.7422H157.289V93.9609H148.078V95.7422ZM157.266 89.1094V76.9219H159.867V89.1094H157.266ZM181.266 76.8984V98.0859H178.781V76.8984H181.266ZM162.82 91.7578C167.203 89.168 169.219 85.8516 169.617 81.5859H163.898V79.4766H172.195C172.195 81.5273 171.938 83.4492 171.363 85.2422H174.305V77.4141H176.766V97.0781H174.305V87.3281H170.508C169.277 89.7539 167.285 91.875 164.297 93.6094L162.82 91.7578ZM208.734 85.5V87.5625H200.344V89.1562H206.32V94.3594H194.273V95.9062H206.906V97.8984H191.719V92.4844H203.766V91.125H191.695V89.1562H197.742V87.5625H189.422V85.5H208.734ZM191.859 84.1641V77.5547H206.25V84.1641H191.859ZM194.414 82.125H203.648V79.5938H194.414V82.125ZM227.906 76.9219V92.4609H225.305V85.3359H221.227V83.1797H225.305V76.9219H227.906ZM210.445 88.1484C215.004 86.707 218.016 84 218.52 80.6484H211.547V78.5156H221.367C221.367 84.1055 217.676 88.2773 211.547 90.2344L210.445 88.1484ZM214.102 97.6641V90.8906H216.75V95.5547H228.445V97.6641H214.102ZM240.539 77.2266C245.367 77.2383 248.168 78.5156 248.18 80.8594C248.168 83.2266 245.367 84.5039 240.539 84.5156C235.723 84.5039 232.898 83.2266 232.898 80.8594C232.898 78.5156 235.723 77.2383 240.539 77.2266ZM230.906 87.7266V85.6406H250.219V87.7266H230.906ZM233.18 91.0781V89.1562H247.805V94.3359H235.758V95.9062H248.391V97.8984H233.203V92.4844H245.25V91.0781H233.18ZM235.641 80.8594C235.629 82.0312 237.316 82.5703 240.539 82.5703C243.809 82.5703 245.484 82.0312 245.484 80.8594C245.484 79.7695 243.809 79.1484 240.539 79.1484C237.316 79.1484 235.629 79.7695 235.641 80.8594ZM8.32031 119.234C8.30859 121.508 10.0312 123.734 13.3594 124.625L12.1875 126.617C9.73828 125.961 7.99219 124.555 7.04297 122.75C6.10547 124.742 4.32422 126.289 1.82812 127.016L0.585938 124.953C3.92578 124.051 5.71875 121.719 5.71875 119.234V119.164H1.28906V117.102H5.71875V114.805H8.34375V117.102H12.75V119.164H8.32031V119.234ZM2.67188 134C6.30469 133.508 8.66016 131.914 9.16406 130.109H3.53906V128.023H17.7188V130.109H12.1172C12.6211 131.867 14.9883 133.52 18.6094 134.023L17.6719 136.016C14.3555 135.547 11.8477 134.129 10.6289 132.207C9.41016 134.117 6.91406 135.5 3.63281 135.969L2.67188 134ZM14.8125 127.039V114.898H17.4141V119.82H20.3672V121.977H17.4141V127.039H14.8125ZM31.0781 115.227C35.9062 115.238 38.707 116.516 38.7188 118.859C38.707 121.227 35.9062 122.504 31.0781 122.516C26.2617 122.504 23.4375 121.227 23.4375 118.859C23.4375 116.516 26.2617 115.238 31.0781 115.227ZM21.4453 125.727V123.641H40.7578V125.727H21.4453ZM23.7188 129.078V127.156H38.3438V132.336H26.2969V133.906H38.9297V135.898H23.7422V130.484H35.7891V129.078H23.7188ZM26.1797 118.859C26.168 120.031 27.8555 120.57 31.0781 120.57C34.3477 120.57 36.0234 120.031 36.0234 118.859C36.0234 117.77 34.3477 117.148 31.0781 117.148C27.8555 117.148 26.168 117.77 26.1797 118.859ZM58.9219 116.656C58.9102 119.316 61.8984 122.023 66.4219 122.609L65.3906 124.719C61.793 124.18 58.9336 122.41 57.5508 120.02C56.168 122.41 53.3203 124.18 49.7578 124.719L48.7266 122.609C53.2031 122.023 56.1797 119.34 56.1797 116.656V115.578H58.9219V116.656ZM47.8828 128.703V126.547H67.1953V128.703H58.7812V136.086H56.2031V128.703H47.8828ZM81.8438 128.68C81.8438 130.449 82.6523 132.289 84.4688 133.461C86.3203 132.207 87.1758 130.285 87.1875 128.68V127.812H89.7422V128.68C89.7305 130.895 91.043 132.98 93.8203 133.859L92.5547 135.758C90.4922 135.066 89.1328 133.719 88.3945 132.02C87.7031 133.695 86.4609 135.172 84.5391 135.945C82.5234 135.207 81.2578 133.777 80.5898 132.102C79.8281 133.73 78.4805 135.055 76.5234 135.758L75.2344 133.859C77.9766 132.898 79.3008 130.742 79.3125 128.68V127.812H81.8438V128.68ZM74.6953 121.086C74.6953 118.109 77.1328 116.047 80.4141 116.047C83.6836 116.047 86.1211 118.109 86.1094 121.086C86.1211 124.027 83.6836 126.113 80.4141 126.102C77.1328 126.113 74.6953 124.027 74.6953 121.086ZM77.25 121.086C77.2383 122.82 78.5625 123.934 80.4141 123.945C82.2305 123.934 83.5547 122.82 83.5547 121.086C83.5547 119.352 82.2305 118.238 80.4141 118.25C78.5625 118.238 77.2383 119.352 77.25 121.086ZM89.3438 126.922V114.922H91.9688V126.922H89.3438ZM100.852 116.445C103.711 116.445 105.832 118.836 106.207 122.703H110.25V114.898H112.828V136.109H110.25V124.812H106.23C105.949 128.902 103.793 131.422 100.852 131.422C97.6641 131.422 95.4023 128.527 95.4141 123.922C95.4023 119.352 97.6641 116.445 100.852 116.445ZM97.9219 123.922C97.9102 127.18 99.1055 129.066 100.852 129.078C102.609 129.066 103.793 127.18 103.805 123.922C103.793 120.688 102.609 118.789 100.852 118.789C99.1055 118.789 97.9102 120.688 97.9219 123.922ZM135.164 131.375V133.508H115.805V131.375H120.281V126.02C118.594 125.047 117.574 123.523 117.586 121.648C117.574 118.273 120.879 116.047 125.438 116.047C130.02 116.047 133.348 118.273 133.336 121.648C133.348 123.5 132.352 124.988 130.711 125.961V131.375H135.164ZM120.141 121.648C120.129 123.816 122.273 125.199 125.438 125.188C128.59 125.199 130.781 123.816 130.781 121.648C130.781 119.445 128.59 118.098 125.438 118.109C122.273 118.098 120.129 119.445 120.141 121.648ZM122.859 131.375H128.062V126.957C127.254 127.133 126.375 127.227 125.438 127.227C124.523 127.227 123.656 127.133 122.859 126.969V131.375ZM139.125 134.188C138.117 134.188 137.285 133.367 137.297 132.359C137.285 131.375 138.117 130.566 139.125 130.555C140.098 130.566 140.93 131.375 140.93 132.359C140.93 133.367 140.098 134.188 139.125 134.188Z" fill="black"/>
</svg>
